<?xml version="1.0" encoding="UTF-8"?><svg id="_이어_2" xmlns="http://www.w3.org/2000/svg" viewBox="0 0 134.49 134.49"><defs><style>.cls-1{fill:none;}.cls-2{fill:#f2f2f2;}.cls-3{fill:#f5f5f5;}.cls-4{fill:#ededed;}.cls-5{fill:#fff;}.cls-6{fill:#e5e5e5;}.cls-7{fill:#e2e2e2;}.cls-8{fill:#866a5e;}.cls-9{fill:#c3dff7;}.cls-10{fill:#e0e0e0;}.cls-11{fill:#a3a3a3;}.cls-12{fill:#3a63ad;}.cls-13{fill:#3a3a3a;}.cls-14{fill:#3c66bc;}.cls-15{fill:#76a2cf;}.cls-16{fill:#7a5f56;}</style></defs><g id="Object"><circle class="cls-2" cx="67.25" cy="67.25" r="67.25"/><g><path class="cls-1" d="M48.37,51.88c-.05-.03-.1-.05-.15-.07,.05,.03,.1,.06,.15,.07Z"/><path class="cls-1" d="M83.16,80.82c-.2-.21-.36-.38-.51-.53,.18,.2,.35,.37,.51,.53Z"/><path class="cls-1" d="M48.99,83.41v0h0Z"/><path class="cls-16" d="M66.76,88.76c.06,.05,.1,.11,.12,.17,.02-.06,.06-.12,.12-.17,8.57-6.56,11.56-10.8,12.82-11.5-.41-.99-.68-1.98-.87-2.92-.31,.3-.63,.59-.95,.88-1.01,.89-2.09,1.7-3.25,2.38-.99,.58-2.04,1.06-3.13,1.41-.99,.32-2.02,.53-3.05,.63-1.29,.13-2.61,.09-3.89-.11-1.05-.17-2.08-.45-3.07-.84-1.11-.44-2.16-1.01-3.16-1.67-1.16-.78-2.24-1.68-3.25-2.65-.2,1-.5,2.05-.95,3.1,1.42,1.14,4.58,5.22,12.5,11.29Z"/><path class="cls-15" d="M48.97,83.46c-.17,.7-1.08,2.91,2.88,8.52,2.23,3.16,7.6,11.51,11.34,18.93,.78-5.01,1.41-8.95,1.66-10.33-.18-.11-.35-.25-.43-.42-1.11-2.5-2.36-3.9-2.42-6.01-1.19,1.29-2.1,2.66-1.98,3.94,.34,3.59-10.58-9.15-11.03-14.68h0s-.01,.04-.01,.05Z"/><path class="cls-15" d="M43.46,86.09c-.17,.11-.33,.22-.49,.33,.13-.04,.24-.08,.36-.12,.04-.07,.09-.14,.13-.21Z"/><path class="cls-15" d="M69.27,100.58c.25,1.36,.87,5.19,1.62,10.09,3.56-7.34,8.58-15.52,10.73-18.68,2.72-4.01,3.02-6.31,2.97-7.52-1.52,5.92-11.17,17-10.85,13.63,.11-1.16-.62-2.39-1.65-3.57-.19,1.91-1.35,3.29-2.4,5.64-.08,.18-.24,.32-.43,.42Z"/><path class="cls-8" d="M61.62,78.68c.99,.39,2.02,.67,3.07,.84,1.28,.2,2.6,.24,3.89,.11,1.04-.11,2.06-.31,3.05-.63,1.09-.35,2.14-.83,3.13-1.41,1.16-.68,2.24-1.49,3.25-2.38,.32-.28,.64-.58,.95-.88h0c4.34-4.19,4.3-14.77,5.35-14.03,2.39,1.61,3.93-3.18,4.23-6.02,.25-2.36-.6-3.56-1.58-3.22-.21,1.02-1.78,.61-2.41,1.64-.63,1.03-.36-3.64-1.26-4.96-.9-1.32-1.39-3.65-3.28-4-1.89-.35-15.71,1.18-24.1-3.28-2.92-1.55-3.4,3.85-5.02,6.23-1.62,2.38-.45,6.79-1.44,5.9-.36-.32-.73-.54-1.07-.71-.05-.02-.1-.04-.15-.07-.49-.24-.9-.42-1.1-.75-.95-.26-1.77,.93-1.52,3.24,.3,2.84,1.83,7.63,4.23,6.02,1.05-.75,1.01,9.83,5.35,14.02,.01,.01,.03,.02,.04,.04,1.01,.97,2.09,1.87,3.25,2.65,.99,.66,2.05,1.23,3.16,1.67Z"/><path class="cls-13" d="M48.22,51.8s.1,.05,.15,.07c.34,.17,.7,.39,1.07,.71,.99,.88-.18-3.53,1.44-5.9,1.62-2.38,2.1-7.78,5.02-6.23,8.39,4.46,22.21,2.93,24.1,3.28,1.89,.35,2.38,2.68,3.28,4,.9,1.32,.63,5.99,1.26,4.96,.62-1.02,2.2-.62,2.41-1.64,0-.01,0-.02,.01-.03,.18-1.06,4.6-11.06-1.43-20.75-6.03-9.69-17.63-10.55-24.26-8.99-8.56,2-9.49,5.91-9.94,6.35s-2.28,.96-3.63,2.9c-4.23,6.96-.79,20.12-.6,20.47,0,.01,.02,.02,.02,.03,.2,.33,.61,.51,1.1,.75Z"/><path class="cls-12" d="M69.18,100.64c-.21,.11-.47,.12-.71,.14l-1.15,.07v.03l-.26-.02-.26,.02v-.03l-1.15-.07c-.24-.02-.5-.03-.71-.14-.03-.02-.06-.04-.09-.06-.25,1.39-.89,5.32-1.66,10.33,2.03,4.02,3.58,7.77,3.87,10.26,.3-2.55,1.84-6.39,3.84-10.51-.76-4.89-1.37-8.72-1.62-10.09-.03,.02-.06,.05-.09,.06Z"/><path class="cls-14" d="M64.42,100.15c.08,.18,.24,.32,.43,.42,.03,.02,.06,.05,.09,.06,.21,.11,.47,.12,.71,.14l1.15,.07v.03l.26-.02,.26,.02v-.03l1.15-.07c.24-.02,.5-.03,.71-.14,.03-.02,.06-.04,.09-.06,.18-.11,.35-.25,.43-.42,1.05-2.35,2.21-3.72,2.4-5.64-1.94-2.24-4.92-4.29-5.21-5.31-.28,.96-2.95,2.84-4.88,4.93,.06,2.11,1.3,3.51,2.42,6.01Z"/><path class="cls-9" d="M52.14,79.1c-.55,.72-1.54,1.78-2.15,2.37-.32,.39-.78,1.06-1,1.92v.02c.45,5.52,11.37,18.26,11.03,14.68-.12-1.28,.79-2.65,1.98-3.94,1.93-2.09,4.6-3.97,4.88-4.93,.3,1.02,3.28,3.07,5.21,5.31,1.02,1.18,1.75,2.41,1.65,3.57-.32,3.37,9.33-7.7,10.85-13.63-.02-.51-.1-.83-.09-1,.03-.64-.09-1.11-.26-1.48-.29-.4-.69-.73-.99-1.06-.04-.04-.07-.07-.1-.1-.16-.17-.33-.34-.51-.53-.27-.28-.53-.58-1.01-1.2-.02-.03-.04-.07-.07-.09h0c-.36-.49-.73-1.01-1.1-1.63-.15-.26-.36-.29-.66-.12-1.25,.7-4.25,4.95-12.82,11.5-.06,.05-.1,.11-.12,.17-.02-.06-.06-.12-.12-.17-7.92-6.07-11.08-10.15-12.5-11.29-.49-.39-.77-.44-.97-.1-.33,.56-.67,1.05-1,1.49h.01s-.15,.22-.16,.23Z"/><path class="cls-3" d="M52.6,131.18l-.04-.37c-.78-7-1.2-10.95-1.27-11.74l-.2,.02c-.28,.02-.52-.18-.55-.46-.48-4.53-2.76-11.45-8.54-10.98-5.67,.46-5.59,9.76-5.47,12.11,.01,.29-.21,.54-.5,.56l-.22,.02h0c.05,.56,.17,2.75,.37,6.49,5.15,2.7,10.7,4.76,16.53,6.06,0-.61-.06-1.2-.11-1.69Z"/><path class="cls-3" d="M35.17,120.37c-.3,.02-.56-.21-.57-.51-.07-1.32-.12-4.37,.62-7.31,1.16-4.62,3.58-6.23,5.69-6.7,0-.04-.03-.08-.03-.12-.1-4.46,.22-8.18,.8-11.3-1.57-.27-2.58-.59-2.12-.93,1.41-1.05,1.52-3.24,3.52-6.82,.08-.14,.17-.26,.25-.39-.12,.04-.23,.08-.36,.12-4.08,1.38-13.89,4.42-16.81,6.33,0,0,0,.04,.01,.07,.59-.31,1.07-.43,1.27-.14,2.62,3.33,3.52,11.07,4.43,19.34,.28,2.55,.55,7.91,.68,12.76,.97,.59,1.97,1.15,2.97,1.7-.19-3.51-.3-5.56-.35-6.1h0Z"/><path class="cls-3" d="M50.58,95.37s-3.8-.25-6.96-.65c-.36,1.92-.61,4.06-.73,6.46l7.7-5.81Z"/><path class="cls-3" d="M62.61,121.14c-1.51-1.69-3.32-4.17-5.16-5.51-5.53-4.03-13.51-13-14.58-14.21-.06,1.35-.09,2.76-.06,4.27h0c5.8,.18,9,6.31,9.66,12.76,.03,.29-.19,.54-.47,.56h-.06c.06,.79,.49,4.73,1.27,11.73l.04,.39c.06,.53,.12,1.2,.12,1.9,2.45,.52,4.94,.91,7.47,1.15h6.42c.07-3.36,.14-5.99,.19-7.7-1.64-1.44-3.11-3.4-4.84-5.33Z"/><path class="cls-7" d="M27.44,92.68c-.2-.29-.68-.17-1.27,.14-1.5,.79-3.75,2.9-4.07,3.23-2.79,2.76-4.38,7.22-6.3,14.33,4.75,5.67,10.4,10.55,16.75,14.41-.13-4.85-.4-10.21-.68-12.76-.91-8.27-1.81-16.01-4.43-19.34Z"/><path class="cls-4" d="M107.44,92.68c.2-.3,.71-.17,1.32,.16,.02-.06,.02-.09,.02-.1-3.31-2.17-15.51-5.8-18.12-6.8-.03-.01-.07-.02-.1-.03,.95,1.73,1.6,3.62,2.02,5.59,.37,.88,.74,1.54,1.34,1.99,.32,.24-.09,.47-.9,.68,.64,5.43-.07,11.09-.59,15.14-.21,1.68-.4,3.12-.4,3.99,0,.09-.03,.17-.05,.26,1.07,.54,1.8,1.64,1.8,2.91,0,1.81-1.47,3.28-3.28,3.28s-3.28-1.47-3.28-3.28c0-1.67,1.26-3.03,2.87-3.24,0-.98,.18-2.39,.41-4.17,.5-3.89,1.15-9.34,.52-14.52-3.3,.49-8.12,.81-8.12,.81l7.83,5.91s-8.77,10.03-14.7,14.35c-1.84,1.34-3.65,3.81-5.16,5.51-1.74,1.95-1.96,3.05-3.37,5.37-.01-.01-.03-.03-.04-.04-.06,1.71-.12,4.34-.19,7.7h6.66c10.33-1,19.98-4.33,28.41-9.47,.13-4.83,.4-10.15,.68-12.69,.91-8.27,1.81-16.01,4.43-19.34Z"/><path class="cls-10" d="M43.08,86.68c-2,3.58-2.11,5.77-3.52,6.82-.46,.34,.55,.66,2.12,.93,.97-5.25,2.68-8.77,4.42-11.11-.86,.68-1.85,1.58-2.64,2.76-.05,.07-.09,.14-.13,.21-.08,.13-.17,.25-.25,.39Z"/><path class="cls-10" d="M93.91,93.5c-.6-.45-.97-1.11-1.34-1.99,.19,.88,.33,1.77,.44,2.67,.82-.21,1.23-.44,.9-.68Z"/><path class="cls-10" d="M84.27,82.01s-.02-.02-.03-.03c.17,.37,.29,.84,.26,1.48,0,.17,.07,.49,.09,1,.05,1.21-.25,3.51-2.97,7.52-2.15,3.16-7.17,11.34-10.73,18.68-1.99,4.11-3.53,7.96-3.84,10.51-.3-2.49-1.85-6.24-3.87-10.26-3.74-7.41-9.11-15.77-11.34-18.93-3.95-5.61-3.04-7.82-2.88-8.52,0-.02,.01-.03,.01-.05v-.02c.23-.86,.68-1.53,1.01-1.92h0c-2.04,1.71-4.97,5.71-6.38,13.25,3.16,.4,6.96,.65,6.96,.65l-7.7,5.81c0,.08,0,.16,0,.24,1.07,1.21,9.05,10.19,14.58,14.21,1.84,1.34,3.65,3.81,5.16,5.51,1.73,1.94,3.21,3.89,4.84,5.33,.01,.01,.03,.03,.04,.04,1.41-2.32,1.63-3.42,3.37-5.37,1.51-1.69,3.32-4.17,5.16-5.51,5.93-4.32,14.7-14.35,14.7-14.35l-7.83-5.91s4.83-.32,8.12-.81c-.61-4.99-2.42-9.72-6.75-12.55Z"/><path d="M81.64,79.09c.48,.62,.74,.91,1.01,1.2,.15,.16,.31,.32,.51,.53,.03,.04,.06,.07,.1,.1,.3,.33,.7,.66,.99,1.06,0,.01,.02,.02,.03,.03,4.32,2.83,6.14,7.56,6.75,12.55,.64,5.18-.02,10.64-.52,14.52-.23,1.78-.4,3.18-.41,4.17,.13-.02,.27-.04,.41-.04,.53,0,1.03,.14,1.47,.37,.02-.08,.05-.17,.05-.26,0-.86,.18-2.31,.4-3.99,.52-4.05,1.23-9.71,.59-15.14-.11-.9-.25-1.79-.44-2.67-.42-1.97-1.07-3.86-2.02-5.59-1.64-3-4.19-5.51-8.07-7.03-.33-.13-.64-.1-.9,.11h0s.05,.06,.07,.09Z"/><path class="cls-11" d="M90.09,113.25c-1.62,.2-2.87,1.57-2.87,3.24,0,1.81,1.47,3.28,3.28,3.28s3.28-1.47,3.28-3.28c0-1.28-.74-2.37-1.8-2.91-.44-.23-.94-.37-1.47-.37-.14,0-.27,.02-.41,.04Zm2.69,3.24c0,1.26-1.02,2.28-2.28,2.28s-2.28-1.02-2.28-2.28,1.02-2.28,2.28-2.28,2.28,1.02,2.28,2.28Z"/><path class="cls-5" d="M90.49,114.2c-1.26,0-2.28,1.02-2.28,2.28s1.02,2.28,2.28,2.28,2.28-1.02,2.28-2.28-1.02-2.28-2.28-2.28Z"/><path d="M41.68,94.43c-.58,3.12-.89,6.84-.8,11.3,0,.04,.02,.08,.03,.12-2.11,.47-4.53,2.09-5.69,6.7-.74,2.94-.69,5.99-.62,7.31,.02,.3,.27,.53,.57,.51,0,0,0,0,.01,0l.63-.05,.22-.02c.29-.02,.51-.27,.5-.56-.11-2.35-.2-11.65,5.47-12.11,5.78-.47,8.06,6.46,8.54,10.98,.03,.28,.27,.48,.55,.46l.2-.02,.64-.05h.06c.29-.03,.5-.28,.47-.57-.66-6.45-3.86-12.58-9.66-12.75h0c-.03-1.52,0-2.93,.06-4.28,0-.08,0-.16,0-.24,.12-2.4,.38-4.54,.73-6.46,1.4-7.54,4.33-11.54,6.38-13.25h0c.61-.59,1.6-1.65,2.15-2.37,0-.02,.15-.21,.16-.23h-.01c-.24-.12-.65,.02-.91,.12-.81,.31-3.06,1.37-5.27,4.34-1.74,2.33-3.45,5.85-4.42,11.11Z"/><path class="cls-6" d="M35.81,120.32l-.63,.05s0,0-.01,0h0c.04,.54,.16,2.59,.35,6.1,.22,.12,.44,.22,.66,.34-.2-3.74-.32-5.93-.37-6.49h0Z"/><path class="cls-6" d="M53.25,131.12l-.04-.39c-.78-6.99-1.2-10.94-1.27-11.72l-.64,.05c.06,.79,.49,4.74,1.27,11.74l.04,.37c.06,.5,.11,1.09,.11,1.69,.22,.05,.43,.1,.65,.15,0-.7-.06-1.37-.12-1.9Z"/><path class="cls-7" d="M108.76,92.84c-.62-.33-1.12-.46-1.32-.16-2.62,3.33-3.52,11.07-4.43,19.34-.28,2.54-.55,7.85-.68,12.69,6.34-3.87,11.99-8.76,16.72-14.43-1.91-7.05-3.5-11.48-6.28-14.23-.32-.32-2.52-2.39-4.02-3.2Z"/></g></g></svg>