<?xml version="1.0" encoding="UTF-8"?><svg id="_이어_2" xmlns="http://www.w3.org/2000/svg" viewBox="0 0 134.49 134.49"><defs><style>.cls-1{fill:none;}.cls-2{fill:#f2f2f2;}.cls-3{fill:#ba5232;}.cls-4{fill:#ce5a2b;}.cls-5{fill:#d1a385;}.cls-6{fill:#d9dde0;}.cls-7{fill:#c69a81;}.cls-8{fill:#1b565c;}.cls-9{fill:#534d46;}.cls-10{fill:#262525;}</style></defs><g id="Object"><circle class="cls-2" cx="67.25" cy="67.25" r="67.25"/><g><path class="cls-1" d="M79.63,75.89s-.1,.03-.15,.04c.02,.07,.04,.13,.06,.2,.01-.09,.06-.16,.09-.24Z"/><path class="cls-1" d="M46.4,68.37c-.46-.44-1.2-2.57-1.96-5.19,.57,2.56,1.04,4.64,1.17,5.07,.18,.59,.8,1.54,1.39,2.34-.04-.47-.09-1.03-.14-1.65-.15-.23-.3-.42-.45-.57Z"/><path class="cls-1" d="M82.54,74.73c.35,.01,.71,.05,1.08,.12,1.89-1.45,2.32-2.77,2.33-2.8,.02-.1,.07-.56,.13-1.29-.74,1.33-1.75,2.88-3.53,3.97Z"/><path class="cls-1" d="M54.51,75.94s.04,.09,.05,.14c.01-.04,.02-.08,.03-.12-.03,0-.05-.02-.08-.02Z"/><path class="cls-1" d="M87.54,68.37c-.13,.13-.25,.29-.38,.47-.06,.66-.11,1.26-.15,1.75,.59-.8,1.21-1.75,1.39-2.34,.15-.49,.74-3.13,1.41-6.17-.86,3.1-1.74,5.79-2.26,6.29Z"/><path class="cls-1" d="M47.94,70.88c.06,.66,.1,1.07,.12,1.16,0,.03,.44,1.36,2.35,2.82,.34-.07,.68-.11,1.01-.13-1.74-1.06-2.74-2.55-3.48-3.85Z"/><path d="M83.21,61.55c-.81-.03-1.18,.67-1.42,1.75,2.29-.29,4.11-.55,4.98-.68,.05-.65,.11-1.31,.16-1.99-.18,.02-.38,.05-.57,.07-.8,.58-1.84,.89-3.14,.85Z"/><path d="M85.36,49.18s-.61,2.31-1.21,3.88c.95-.64,2.58-.87,3.4,.61,.15-1.56,.29-3.07,.39-4.34-.59-.29-1.24-.54-1.91-.78-.2,.27-.41,.5-.66,.63Z"/><path d="M86.08,70.75c.14-1.51,.36-4.2,.62-7.33-.96,.14-2.79,.4-5.07,.68-.39,2.41-.58,6.01-2.78,8.58,.1,1.01,.29,2.12,.63,3.25,.05-.01,.1-.03,.15-.04-.03,.08-.07,.15-.09,.24-.04,.23,0,.51,.11,.8,1.76-.64,3.04-1.38,3.97-2.09-.36-.07-.72-.11-1.08-.12,1.78-1.1,2.79-2.64,3.53-3.97Z"/><path d="M50.06,53.18c-.6-1.26-1.2-3.74-1.79-4.34-.06-.07-.13-.18-.19-.33-.71,.25-1.39,.51-2,.81,.1,1.28,.25,2.8,.39,4.37,.87-1.61,2.67-1.25,3.59-.51Z"/><path d="M89.11,45.02c-.37-.2-.98-.51-1.87-.86-.13,1.39-.37,2.65-.77,3.58,.89,.32,1.73,.68,2.47,1.08l.38-3.48v-.07c-.06-.08-.14-.16-.21-.24Z"/><path d="M46.85,68.95c-.19-2.25-.45-5.37-.7-8.44-.69-.1-1.16-.18-1.35-.24-.82-.25-1.45-3.27-1.87-8.95-.35,.21-.71,.42-.95,.57,.3,1.38,1.51,7.01,2.46,11.31,.76,2.61,1.5,4.74,1.96,5.19,.16,.15,.3,.35,.45,.57Z"/><path d="M90.2,50.74c-.41-.34-.88-.66-1.38-.95-.16,1.71-.58,5.97-.89,9.82,.5-.07,.82-.13,.93-.16,.49-.48,1.07-4.84,1.34-8.71Z"/><path d="M89.81,62.08c.9-4.11,1.95-8.94,2.22-10.21-.24-.14-.6-.36-.95-.57-.42,5.69-1.05,8.71-1.87,8.95-.19,.06-.66,.14-1.35,.24-.24,3.03-.5,6.09-.69,8.34,.12-.18,.25-.34,.38-.47,.52-.5,1.41-3.19,2.26-6.29Z"/><path d="M50.82,61.55c-1.29,.05-2.34-.27-3.14-.84-.2-.02-.41-.05-.6-.07,.05,.67,.11,1.33,.16,1.98,.8,.13,2.64,.41,5,.72-.24-1.1-.61-1.81-1.43-1.78Z"/><path d="M44.7,45.48l.37,3.34c.81-.44,1.72-.83,2.71-1.17-.26-.91-.53-2.21-.77-3.59-1,.38-1.67,.72-2.07,.94-.08,.09-.16,.17-.22,.26v.21Z"/><path d="M43.81,50.74c.27,3.87,.86,8.23,1.34,8.71,.11,.03,.44,.09,.93,.16-.31-3.84-.73-8.11-.89-9.82-.51,.29-.98,.61-1.38,.95Z"/><path class="cls-7" d="M66.56,79.55v-.46h0v.46c-.09,0-.19,0-.28,0-5.45,0-9.37-.74-12.17-1.74-4.02,9.11,8.26,17.59,12.96,21.41,4.71-3.83,17.02-12.33,12.95-21.45-2.81,1.02-6.75,1.78-12.26,1.78-.09,0-1.09,0-1.18,0Z"/><path class="cls-7" d="M60.55,76.99l.17,1.37c1.64,.19,3.47,.3,5.55,.3h.04v-.04c-2.44-.09-4.05-.58-5.75-1.62Z"/><path class="cls-7" d="M79.54,76.13c-.02-.07-.04-.13-.06-.2-.34-1.13-.53-2.24-.63-3.25-.28,.33-.59,.65-.94,.94-1.35,1.11-2.44,2.01-3.45,2.73l-.23,1.89c2.19-.31,3.96-.77,5.42-1.3-.1-.29-.15-.57-.11-.8Z"/><path class="cls-7" d="M73.46,77c-1.84,1.12-3.58,1.61-6.37,1.63v.03h.66c2.08,0,3.91-.11,5.55-.3l.17-1.35Z"/><path class="cls-7" d="M55.23,72.74c-.1,1-.29,2.1-.63,3.22-.01,.04-.02,.08-.03,.12,.06,.26,.02,.56-.1,.89,1.44,.52,3.18,.97,5.33,1.27l-.23-1.91c-1-.71-2.09-1.61-3.43-2.71-.33-.27-.62-.57-.89-.87Z"/><path class="cls-4" d="M129.07,86.22c0-3.54-5.47-11.57-19.28-13.01-10.65-1.11-19.59,1.74-23.12,3.1,.29,.28,.54,.59,.72,.94,1.69,3.39,7.62,9.32-20.33,26.54-27.95-17.22-22.02-23.15-20.33-26.54,.18-.35,.43-.66,.72-.94-3.54-1.36-12.48-4.22-23.12-3.1-13.81,1.44-19.28,9.47-19.28,13.01,0,1-.37,2.63-.8,4.57,3.25,8.69,8.25,16.52,14.57,23.08,4.77,1.22,9.88,2.48,11.29,2.24,0,0-.44,5.17-1.27,5.72,.01,.21,.03,.42,.04,.62,10.89,7.58,24.11,12.04,38.38,12.04s27.29-4.39,38.13-11.86c0-.25,0-.51-.01-.77-.89-.22-1.36-5.75-1.36-5.75,1.47,.24,6.9-1.12,11.81-2.37,6.11-6.38,10.97-13.95,14.2-22.34-.48-2.22-.93-4.08-.93-5.18Zm-62.11,35.05c-1.04,0-5.41-2.68-5.76-7.51-.24-3.41,.89-1.63,2.48-2.21,1.59-.58,2.23-2.15,3.28-2.15s1.69,1.58,3.28,2.15c1.59,.58,2.73-1.2,2.48,2.21-.35,4.83-4.72,7.51-5.76,7.51Z"/><path d="M54.46,76.97c.12-.33,.16-.63,.1-.89-.01-.05-.03-.09-.05-.14,.03,0,.05,.02,.08,.02,.34-1.12,.53-2.21,.63-3.22-2.24-2.56-2.43-6.19-2.82-8.61-2.32-.3-4.17-.58-5.09-.72,.26,3.23,.49,5.99,.63,7.47,.74,1.31,1.74,2.79,3.48,3.85-.33,.02-.67,.06-1.01,.13,.94,.72,2.25,1.47,4.05,2.11Z"/><path d="M67.06,103.79c27.95-17.22,22.02-23.15,20.33-26.54-.18-.35-.43-.66-.72-.94-.53-.52-1.22-.91-1.96-1.17-1.03,.89-2.52,1.85-4.7,2.64,4.07,9.12-8.24,17.62-12.95,21.45-4.7-3.83-16.98-12.31-12.96-21.41-2.21-.79-3.72-1.75-4.76-2.65-.71,.26-1.37,.64-1.88,1.14-.29,.28-.54,.59-.72,.94-1.69,3.39-7.62,9.32,20.33,26.54Z"/><path class="cls-5" d="M67.31,61.86c-.08,0-.15,0-.23,0v2.62c2.45-.02,5.24-.2,7.96-.44l.3-2.41c-2.55,.13-5.28,.22-8.02,.24h0Z"/><path class="cls-5" d="M50.27,46.93c2.29-.57,4.83-.96,7.43-1.21v-3.89c-3.18,.3-5.68,.77-7.61,1.27-.06,1.09,.04,2.45,.19,3.83Z"/><path class="cls-5" d="M83.21,61.55c1.3,.05,2.34-.27,3.14-.85-2.36,.28-5.95,.63-10.08,.87l-.29,2.38c2.08-.2,4.08-.43,5.81-.65,.24-1.08,.61-1.78,1.42-1.75Z"/><path class="cls-5" d="M84.15,53.05c-.32,.83-.63,1.45-.85,1.39-.46-.13-.43-2.9,.02-6.7-.33-.08-.65-.16-.99-.23l-.97,12.79c2.36-.2,4.31-.41,5.63-.58,.15-1.84,.36-4,.55-6.07-.82-1.48-2.45-1.25-3.4-.61Z"/><path class="cls-5" d="M66.7,45.29c.1,0,.21,0,.31,0s.21,0,.31,0h0c2.56,.02,5.33,.11,8.09,.34v-3.88c-2.3-.19-5.36-.38-8.4-.4-3.03,.01-6.09,.21-8.4,.4v3.88c2.75-.23,5.52-.32,8.09-.34h0Z"/><path class="cls-5" d="M66.31,64.47v-2.62h.39c-2.75-.01-5.47-.1-8.02-.24l.3,2.45c2.48,.22,5.03,.39,7.33,.4Z"/><path class="cls-5" d="M52.25,63.32c1.72,.22,3.71,.46,5.79,.66l-.3-2.42c-4.12-.24-7.7-.58-10.06-.86,.79,.58,1.84,.89,3.14,.84,.82-.03,1.19,.68,1.43,1.78Z"/><path class="cls-5" d="M50.78,53.91c-.24,.1-.48-.22-.72-.73-.92-.74-2.73-1.1-3.59,.51,.19,2.06,.4,4.2,.55,6.04,1.32,.17,3.26,.38,5.63,.58l-.97-12.79c-.45,.1-.88,.2-1.31,.31,.36,3.02,.87,5.9,.41,6.09Z"/><path class="cls-5" d="M83.96,43.11c-1.94-.5-4.45-.98-7.65-1.28v3.89c2.48,.24,4.91,.61,7.12,1.14,.13-1.03,.3-2.11,.48-3.23,.03-.19,.03-.34,.04-.51Z"/><path class="cls-5" d="M80.44,60.38l.99-13.06c-4.56-.87-9.86-1.12-14.42-1.13-4.57,.01-9.86,.27-14.42,1.13l.99,13.06c3.8,.3,8.52,.56,13.44,.57,4.92-.01,9.64-.27,13.44-.57Z"/><path class="cls-5" d="M66.31,78.61v-13.36c-2.27-.02-4.79-.17-7.24-.39l1.48,12.13c1.7,1.04,3.32,1.54,5.75,1.62Z"/><path class="cls-5" d="M78.85,72.68c2.2-2.57,2.39-6.17,2.78-8.58-1.72,.21-3.7,.44-5.75,.63l-1.42,11.61c1.01-.71,2.1-1.61,3.45-2.73,.35-.29,.66-.61,.94-.94Z"/><path class="cls-5" d="M56.12,73.62c1.34,1.1,2.43,2,3.43,2.71l-1.41-11.55c-2.05-.19-4.02-.43-5.73-.65,.39,2.43,.59,6.05,2.82,8.61,.27,.31,.56,.6,.89,.87Z"/><path class="cls-5" d="M73.46,77l1.49-12.18c-2.68,.24-5.44,.42-7.86,.43v13.38c2.79-.02,4.53-.51,6.37-1.63Z"/><path class="cls-9" d="M83.96,43.11c-.01,.17-.01,.32-.04,.51-.19,1.12-.35,2.21-.48,3.23,1.07,.26,2.09,.55,3.03,.89,.4-.94,.64-2.2,.77-3.58-.83-.33-1.91-.7-3.28-1.05Z"/><path class="cls-9" d="M50.06,53.18c.24,.51,.48,.83,.72,.73,.46-.19-.05-3.07-.41-6.09-.81,.2-1.57,.43-2.29,.69,.07,.14,.13,.26,.19,.33,.59,.6,1.19,3.08,1.79,4.34Z"/><path class="cls-9" d="M50.27,46.93c-.15-1.38-.24-2.74-.19-3.83-1.26,.33-2.28,.66-3.08,.97,.25,1.38,.51,2.68,.77,3.59,.79-.27,1.62-.51,2.49-.73Z"/><path class="cls-9" d="M83.3,54.44c.21,.06,.53-.56,.85-1.39,.6-1.56,1.21-3.88,1.21-3.88,.25-.13,.47-.36,.66-.63-.85-.3-1.75-.56-2.7-.79-.45,3.79-.48,6.57-.02,6.7Z"/><path class="cls-4" d="M43.07,50.17l.12-.1c.31-.26,.65-.51,1.01-.74l-.48-4.37c-.02-.16,.05-.32,.19-.42,.17-.12,3.62-2.69,13.78-3.62l.62-.05v-8.89h17.32v8.88l.69,.06c10.16,.94,13.6,3.5,13.78,3.62,.14,.09,.21,.25,.19,.42l-.48,4.37c.36,.23,.7,.48,1.01,.74l.12,.1c.62,.38,1.84,1.1,1.84,1.1,.07,.04,.11,.1,.15,.16,2.53-21.42-10.18-33.35-25.73-33.53h0c-.06,0-.12,0-.18,0-.06,0-.12,0-.18,0h0c-15.54,.19-28.26,12.12-25.73,33.52,.04-.05,.07-.11,.13-.15,0,0,1.22-.72,1.84-1.1Z"/><path class="cls-4" d="M89.32,45.27v.07l.02-.19c-.06-.03-.14-.08-.23-.13,.07,.08,.15,.16,.21,.24Z"/><path class="cls-4" d="M44.71,45.27c.06-.09,.14-.18,.22-.26-.1,.06-.2,.11-.26,.15l.04,.33v-.21Z"/><path class="cls-6" d="M75.63,31.98h-17.32v8.89l.3-.03c2.23-.18,5.16-.37,8.09-.39h0c.1,0,.21,0,.31,0,.1,0,.21,0,.31,0h0c2.92,.03,5.85,.21,8.09,.39l.23,.02v-8.88Z"/><path class="cls-8" d="M54.1,77.82c2.8,1,6.72,1.74,12.17,1.74,.09,0,.19,0,.28,0v-.46h0v.46c.09,0,1.09,0,1.18,0,5.51,0,9.45-.75,12.26-1.78,2.18-.79,3.68-1.75,4.7-2.64,1.46-1.27,1.96-2.41,2.09-2.79,.33-.4,2.1-2.6,2.48-3.84,.38-1.28,3.58-16.13,3.71-16.76,.02-.11,0-.22-.07-.31-.04-.06-.08-.12-.15-.16,0,0-1.22-.72-1.84-1.1l-.12-.1c-.31-.26-.65-.51-1.01-.74l.48-4.37c.02-.16-.05-.32-.19-.42-.17-.12-3.62-2.69-13.78-3.62l-.69-.06-.23-.02c-2.23-.18-5.16-.37-8.09-.39h0c-.1,0-.21,0-.31,0-.1,0-.21,0-.31,0h0c-2.92,.03-5.85,.21-8.09,.39l-.3,.03-.62,.05c-10.16,.94-13.61,3.5-13.78,3.62-.14,.09-.21,.25-.19,.42l.48,4.37c-.36,.23-.7,.48-1.01,.74l-.12,.1c-.62,.38-1.84,1.1-1.84,1.1-.06,.04-.09,.09-.13,.15-.07,.1-.11,.21-.08,.33,.14,.63,3.33,15.48,3.71,16.76,.37,1.25,2.15,3.45,2.48,3.84,.13,.38,.65,1.54,2.13,2.82,1.04,.9,2.55,1.85,4.76,2.65Zm12.17,.84c-2.07,0-3.91-.11-5.55-.3l-.17-1.37-1.48-12.13c2.45,.22,4.97,.38,7.24,.39v13.4h-.04Zm-19.18-18.02c.18,.02,.39,.05,.6,.07,2.36,.28,5.94,.63,10.06,.86l.3,2.42c-2.08-.2-4.07-.44-5.79-.66-2.36-.31-4.2-.59-5-.72-.05-.65-.11-1.31-.16-1.98Zm-1-1.03c-.5-.07-.82-.13-.93-.16-.49-.48-1.07-4.84-1.34-8.71,.41-.34,.88-.66,1.38-.95,.16,1.71,.58,5.97,.89,9.82Zm-.01-10.28c.62-.3,1.3-.56,2-.81,.73-.25,1.49-.48,2.29-.69,.43-.11,.86-.21,1.31-.31l.97,12.79c-2.36-.2-4.31-.41-5.63-.58-.15-1.83-.35-3.98-.55-6.04-.15-1.57-.29-3.09-.39-4.37Zm7.5,11.07l-.99-13.06c4.56-.87,9.86-1.12,14.42-1.13,4.57,.01,9.86,.27,14.42,1.13l-.99,13.06c-3.8,.3-8.52,.56-13.44,.57-4.92-.01-9.64-.27-13.44-.57Zm5.04-18.63c2.3-.19,5.36-.38,8.4-.4,3.03,.01,6.09,.21,8.4,.4v3.88c-2.75-.23-5.52-.32-8.09-.34h0c-.1,0-.21,0-.31,0s-.21,0-.31,0h0c-2.56,.02-5.33,.11-8.09,.34v-3.88Zm28.15,20.87c-.87,.13-2.69,.39-4.98,.68-1.73,.22-3.73,.45-5.81,.65l.29-2.38c4.14-.24,7.72-.58,10.08-.87,.19-.02,.4-.05,.57-.07-.05,.68-.11,1.34-.16,1.99Zm2.05-12.84c.51,.29,.98,.61,1.38,.95-.27,3.87-.86,8.23-1.34,8.71-.11,.03-.44,.09-.93,.16,.31-3.84,.73-8.11,.89-9.82Zm-1.27,3.88c-.2,2.07-.4,4.23-.55,6.07-1.32,.17-3.26,.38-5.63,.58l.97-12.79c.34,.07,.66,.15,.99,.23,.95,.23,1.86,.5,2.7,.79,.67,.24,1.32,.49,1.91,.78-.1,1.27-.24,2.78-.39,4.34Zm-12.5,10.37c-2.72,.24-5.51,.43-7.96,.44v-2.62c.08,0,.15,0,.23,0h0c2.75-.02,5.47-.11,8.02-.24l-.3,2.41Zm-8.35-2.17h-.39v2.62c-2.3-.02-4.85-.18-7.33-.4l-.3-2.45c2.55,.13,5.28,.22,8.02,.24Zm1.05,16.8h-.66v-13.4c2.42-.02,5.18-.19,7.86-.43l-1.49,12.18-.17,1.35c-1.64,.19-3.47,.3-5.55,.3Zm15.88-3.81c-.93,.71-2.21,1.45-3.97,2.09-1.46,.53-3.23,.99-5.42,1.3l.23-1.89,1.42-11.61c2.05-.19,4.03-.42,5.75-.63,2.28-.28,4.11-.54,5.07-.68-.26,3.14-.48,5.82-.62,7.33-.07,.73-.11,1.19-.13,1.29,0,.03-.44,1.35-2.33,2.8Zm4.78-6.59c-.18,.59-.8,1.54-1.39,2.34,.04-.49,.1-1.09,.15-1.75,.19-2.24,.44-5.31,.69-8.34,.7-.1,1.16-.18,1.35-.24,.82-.25,1.45-3.27,1.87-8.95,.35,.21,.71,.42,.95,.57-.27,1.26-1.32,6.1-2.22,10.21-.67,3.04-1.26,5.68-1.41,6.17Zm.92-22.92l-.38,3.48c-.75-.4-1.58-.76-2.47-1.08-.95-.34-1.96-.64-3.03-.89-2.21-.53-4.64-.89-7.12-1.14v-3.89c3.2,.3,5.71,.78,7.65,1.28,1.37,.35,2.45,.72,3.28,1.05,.89,.35,1.5,.66,1.87,.86,.09,.05,.17,.09,.23,.13l-.02,.19Zm-44.39-.34c.4-.22,1.07-.55,2.07-.94,.81-.31,1.82-.64,3.08-.97,1.93-.5,4.43-.97,7.61-1.27v3.89c-2.6,.25-5.13,.64-7.43,1.21-.87,.22-1.71,.45-2.49,.73-.98,.34-1.89,.73-2.71,1.17l-.37-3.34-.04-.33c.07-.04,.16-.09,.26-.15Zm.68,23.25c-.13-.43-.6-2.51-1.17-5.07-.95-4.3-2.17-9.93-2.46-11.31,.24-.14,.6-.36,.95-.57,.42,5.69,1.05,8.71,1.87,8.95,.19,.06,.66,.14,1.35,.24,.25,3.08,.5,6.19,.7,8.44,.05,.62,.1,1.18,.14,1.65-.59-.8-1.21-1.75-1.39-2.34Zm2.45,3.79c-.02-.09-.06-.51-.12-1.16-.14-1.49-.37-4.24-.63-7.47,.92,.14,2.77,.42,5.09,.72,1.71,.22,3.68,.45,5.73,.65l1.41,11.55,.23,1.91c-2.14-.3-3.88-.75-5.33-1.27-1.8-.64-3.11-1.39-4.05-2.11-1.91-1.46-2.34-2.79-2.35-2.82Z"/><path class="cls-10" d="M72.73,113.76c.24-3.41-.89-1.63-2.48-2.21-1.59-.58-2.23-2.15-3.28-2.15s-1.69,1.58-3.28,2.15c-1.59,.58-2.73-1.2-2.48,2.21,.35,4.83,4.72,7.51,5.76,7.51s5.41-2.68,5.76-7.51Z"/><path class="cls-7" d="M28.65,121.88c-.09-.02-.36-.06-.77-.13,.33,.24,.66,.47,.99,.7,0-.2-.03-.42-.04-.62-.06,.04-.12,.06-.18,.05Z"/><path class="cls-3" d="M28.65,121.88c.06,.01,.12,0,.18-.05,.83-.55,1.27-5.72,1.27-5.72-1.42,.23-6.52-1.03-11.29-2.24,2.78,2.89,5.81,5.53,9.07,7.88,.41,.07,.68,.11,.77,.13Z"/><path class="cls-7" d="M105.45,121.88s-.06-.01-.09-.02c0,.26,0,.52,.01,.77,.46-.32,.91-.64,1.36-.97-.69,.12-1.16,.19-1.28,.22Z"/><path class="cls-3" d="M104,116.11s.48,5.53,1.36,5.75c.03,0,.06,.03,.09,.02,.13-.02,.59-.1,1.28-.22,3.26-2.37,6.29-5.02,9.07-7.93-4.91,1.26-10.34,2.62-11.81,2.37Z"/></g></g></svg>