<?xml version="1.0" encoding="UTF-8"?><svg id="_이어_2" xmlns="http://www.w3.org/2000/svg" viewBox="0 0 134.49 134.49"><defs><style>.cls-1{fill:none;}.cls-2{fill:#f2f2f2;}.cls-3{fill:#eaeaea;}.cls-4{fill:#edefef;}.cls-5{fill:#edb888;}.cls-6{fill:#dbdbdb;}.cls-7{fill:#e2ae83;}.cls-8{fill:#534d46;}.cls-9{fill:#3d3d3d;}</style></defs><g id="Object"><circle class="cls-2" cx="67.25" cy="67.25" r="67.25"/><g><path class="cls-1" d="M85.03,53.5c.02,.18,.06,.22,.12,.08,.18-.41,.48-1.04,.92-1.53-.43,.41-.76,.93-1.04,1.45Z"/><path class="cls-1" d="M49.31,53.66s-.03-.05-.05-.08c.02,.05,.04,.07,.05,.08Z"/><path class="cls-8" d="M79.47,74.46c-.31,.27-.61,.52-.9,.76,.03,.78,.11,1.64,.26,2.55,.1-.09,.18-.18,.24-.28,1.25-2.3,1.69-4.26,2.18-2.8,.31,.93,1.44-1.16,1.56-2.59,.11-1.31,.16-1.97,.83-.73,.6,1.11,1.58-5.73,1.89-9.58-.16,.02-.33,.03-.49,0-3.07-.56-.52,8.39-5.57,12.68Z"/><path class="cls-8" d="M54.94,74.46c-5.05-4.29-2.51-13.24-5.57-12.68-.16,.03-.33,.02-.49,0,.31,3.85,1.28,10.69,1.89,9.58,.67-1.24,.72-.58,.83,.73,.12,1.43,1.25,3.52,1.56,2.59,.48-1.44,.92,.44,2.13,2.69,.13-.88,.19-1.71,.21-2.45-.18-.15-.36-.31-.55-.47Z"/><path class="cls-7" d="M66.98,97.13c11.39-.12,16.09-5.5,17.84-9.92-3.99-2.75-5.46-6.36-5.99-9.43-.16-.91-.23-1.77-.26-2.55-2.59,2.19-4.27,3.47-6.49,4.08-1.9,.99-4.06,1.26-5,1.26s-3.26-.3-5.19-1.39c-2.1-.68-3.78-2.03-6.39-4.24-.02,.74-.08,1.57-.21,2.45-.47,3.17-1.91,6.98-6.1,9.86,1.76,4.42,6.44,9.77,17.8,9.89Z"/><path class="cls-5" d="M72.03,70.95c-2.37-.89-4.95-.71-4.95-.71,0,0-2.58-.18-4.95,.71-2.37,.89-2.16,4.63,1.03,5.43,3.19,.8,1.45-.98,1.75-1.78,.31-.8,2.16,.12,2.16,.12,0,0,1.86-.92,2.16-.12,.31,.8-1.44,2.58,1.75,1.78,3.19-.8,3.4-4.54,1.03-5.43Z"/><path class="cls-5" d="M54.94,74.46c.19,.16,.37,.31,.55,.47,2.61,2.21,4.29,3.56,6.39,4.24-1.77-1-3.25-2.66-3.15-5.38,.21-5.7,5.45-6.77,8.34-6.77s8.19,1.07,8.39,6.77c.1,2.84-1.52,4.53-3.4,5.51,2.22-.61,3.9-1.89,6.49-4.08,.29-.24,.59-.5,.9-.76,5.05-4.29,2.51-13.24,5.57-12.68,.16,.03,.33,.02,.49,0,2.93-.34,5.95-8.03,3.67-9.79-.59-.46-1.11-.65-1.56-.68-.1,.02-.19,.03-.3,.01h0c-.5,.11-.92,.38-1.27,.72-.45,.49-.75,1.12-.92,1.53-.06,.14-.1,.09-.12-.08-.54,1.01-.88,1.99-1.27,1.99-.77,0-1.83-8.8-2.85-8.53-.7,.19-.44,1.49-2.23,.98-1.79-.51-6.32-5.16-6.32-4.04s2.7,3.84-1.94,2.3c-4.64-1.54-8.92-7.16-8.92-4.25s-1.95-2.84-2.05,0c-.13,3.68-9.08,7.96-8.7,10.75,.38,2.77,.51,3.84-1.44,.95-.02,0-.03-.03-.05-.08-2-2.98-2.72-1.5-3.38-2-.21,.11-.44,.24-.67,.42-2.28,1.76,.74,9.45,3.67,9.79,.16,.02,.33,.03,.49,0,3.07-.56,.52,8.39,5.57,12.68Z"/><path class="cls-3" d="M29.32,93.27c-1.21,.49-2.13,.92-2.62,1.23,4.3,.06,7.9,12.82,8.86,17.82,.51,2.66,.77,8.45,.78,14.64,.64,.33,1.28,.66,1.93,.98-1.24-13.63-5.38-28.23-8.92-34.28-.05-.13-.05-.26-.03-.4Z"/><path class="cls-3" d="M86.26,87.43l2.15,.49c-.87-.22-1.61-.4-2.15-.49Z"/><path class="cls-3" d="M45.31,88.04l2.13-.52c-.58,.12-1.3,.3-2.13,.52Z"/><path class="cls-3" d="M107.47,94.51c-.5-.33-1.46-.77-2.73-1.28,.04,.15,.03,.3-.02,.44-3.56,6.08-7.72,20.79-8.94,34.48,.74-.35,1.47-.71,2.19-1.09,.01-6.23,.27-12.06,.78-14.74,.95-4.94,4.48-17.48,8.72-17.82Z"/><path class="cls-3" d="M91.39,88.82s.03-.04,.04-.06c-1.09-.32-2.1-.6-2.98-.82-1.74,4.51-7.01,12.75-21.08,13.02v.03c-.13,0-.25-.01-.39-.01-.13,0-.25,.01-.39,.01v-.03c-14.07-.27-19.56-8.41-21.3-12.92-.8,.21-1.69,.46-2.64,.74,0,.01,.02,.02,.02,.04,1.36,3.6,9.32,23.62,12.18,44.52,4.02,.75,8.15,1.16,12.39,1.16s8.07-.38,11.95-1.08c2.86-20.93,10.83-41,12.19-44.6Z"/><path class="cls-8" d="M49.26,53.59s.03,.05,.05,.08c1.95,2.89,1.82,1.82,1.44-.95-.38-2.79,8.57-7.06,8.7-10.75,.1-2.84,2.05,2.92,2.05,0s4.28,2.71,8.92,4.25c4.64,1.54,1.94-1.18,1.94-2.3s4.53,3.53,6.32,4.04c1.79,.51,1.53-.79,2.23-.98,1.02-.28,2.08,8.53,2.85,8.53,.4,0,.73-.98,1.27-1.99,.28-.52,.61-1.04,1.04-1.45,.35-.34,.77-.61,1.27-.72h0c.11,.02,.2,.01,.3-.01,1-.25,1.46-2.92,1.11-5.49-.38-2.81,1.61,1.28,1.25,.13-.36-1.15,.15-12.02-6.37-16.63-2.17-1.66,2.3,.77,1.66,0-.34-.4-1.61-1.6-3.37-2.8-.45,.45-1.37,.64-2.77,.43-2.69-.41-9.88,1.44-16.91,4.38-7.04,2.94-13.23,6.52-16.05,9.42-.8,.82-1.42,.88-1.9,.45-.35,3.96,.05,8.27,1.58,10.37h0c.65,.51,1.38-.97,3.38,2.01Z"/><path class="cls-9" d="M42.68,88.82s-.02-.02-.02-.04c-.82-1.58-12.89,2.06-13.34,4.49-.03,.14-.02,.27,.03,.4,3.54,6.05,7.68,20.64,8.92,34.28,5.19,2.48,10.76,4.31,16.59,5.39-2.86-20.9-10.83-40.92-12.18-44.52Z"/><path class="cls-9" d="M104.74,93.23c-.57-2.42-12.39-5.98-13.32-4.47-.01,.02-.03,.04-.04,.06-1.36,3.6-9.34,23.67-12.19,44.6,5.82-1.04,11.38-2.83,16.58-5.27,1.22-13.69,5.39-28.4,8.94-34.48,.06-.14,.06-.29,.02-.44Z"/><path class="cls-9" d="M46.19,40.76c2.82-2.9,9.02-6.49,16.05-9.42,7.04-2.94,14.22-4.79,16.91-4.38,1.4,.21,2.32,.02,2.77-.43,1.62-1.62-2.67-6.6-11.6-8.46-4.28-.89-8.04,.36-11.79,1.53,.01-.32-.02-.67-.13-1.01-.39-1.28-1.45-2.3-2.68-1.7-1.12,.54-1.32,1.53-.93,2.81,.1,.33,.25,.62,.43,.87-4.7,1.34-10.08,5.82-11.63,10.69-.8,2.51-.78,8.62,.7,9.96,.48,.43,1.1,.37,1.9-.45Z"/><path class="cls-8" d="M75.48,73.8c-.21-5.7-5.51-6.77-8.39-6.77s-8.13,1.07-8.34,6.77c-.1,2.72,1.38,4.38,3.15,5.38,1.94,1.09,4.22,1.39,5.19,1.39s3.1-.27,5-1.26c1.88-.98,3.5-2.67,3.4-5.51Zm-4.48,2.58c-3.19,.8-1.45-.98-1.75-1.78-.31-.8-2.16,.12-2.16,.12,0,0-1.86-.92-2.16-.12-.31,.8,1.44,2.58-1.75,1.78-3.19-.8-3.4-4.54-1.03-5.43,2.37-.89,4.95-.71,4.95-.71,0,0,2.58-.18,4.95,.71,2.37,.89,2.16,4.63-1.03,5.43Z"/><path class="cls-4" d="M66.6,100.96v.03c.13,0,.25-.01,.39-.01,.13,0,.25,.01,.39,.01v-.03c14.07-.27,19.34-8.52,21.08-13.02h-.04l-2.15-.5-1.39-.32s-.03,.06-.04,.1c-1.75,4.42-6.45,9.8-17.84,9.92-11.36-.12-16.05-5.47-17.8-9.89-.02-.04-.04-.09-.06-.13l-1.68,.41-2.13,.52h-.02c1.74,4.51,7.23,12.65,21.3,12.92Z"/><path class="cls-6" d="M26.7,94.5c-.2,0-.4,.01-.6,.07-3.27,.87-5.91,9.79-7.8,18.76,5.18,5.5,11.28,10.13,18.05,13.64-.01-6.19-.27-11.98-.78-14.64-.96-5-4.56-17.76-8.86-17.82Z"/><path class="cls-6" d="M108.22,94.57c-.25-.07-.5-.08-.75-.06-4.24,.34-7.77,12.88-8.72,17.82-.52,2.68-.77,8.51-.78,14.74,6.78-3.49,12.88-8.09,18.08-13.57-1.89-9.02-4.55-18.04-7.83-18.92Z"/></g></g></svg>