<?xml version="1.0" encoding="UTF-8"?><svg id="_이어_2" xmlns="http://www.w3.org/2000/svg" viewBox="0 0 134.49 134.49"><defs><style>.cls-1{fill:#f6df00;}.cls-2{fill:#f2f2f2;}.cls-3{fill:#ead018;}.cls-4{fill:#fcfd59;}.cls-5{fill:#d1a385;}.cls-6{fill:#c69a81;}.cls-7{fill:#24353f;}.cls-8{fill:#223035;}.cls-9{fill:#212d33;}.cls-10{fill:#1d282d;}.cls-11{fill:#373631;}.cls-12{fill:#0e0c0f;}.cls-13{fill:#3a3a3a;}.cls-14{fill:#d5d5dd;opacity:.56;}</style></defs><g id="Object"><circle class="cls-2" cx="67.25" cy="67.25" r="67.25"/><g><path class="cls-12" d="M48.47,52.75c-.05-.03-.1-.05-.15-.08,.05,.03,.1,.06,.15,.08Z"/><path class="cls-12" d="M86.89,52.42c-.1,.08-.2,.16-.31,.25,.09-.06,.2-.14,.31-.25Z"/><path class="cls-12" d="M89.82,55.84c-.05-2.37,.34-4.86,.17-7.07-.41-.18-.85-.36-1.33-.54-.47,1.99-1,3.34-1.06,3.7,1.01-.39,1.9,.85,1.65,3.28-.3,2.88-1.86,7.74-4.29,6.11-1.06-.76-1.02,9.98-5.43,14.23-.1,.1-.21,.19-.32,.29,.05,1.02,.16,2.17,.44,3.38,.39-.53,.62-1.07,.63-1.63,0,0,1.66-.67,4.13,6.02,8.03-.88,14.86-1.93,14.86-1.93,0,0,.47-4.31-3.06-9.81-2.37-3.68-3.77-7.93-4.59-12.09h0c-.82,0-1.7,0-1.78-3.93Z"/><path class="cls-12" d="M55.05,77.59c0,.56,.23,1.1,.63,1.63,.25-1.07,.37-2.1,.42-3.03-.24-.22-.49-.42-.72-.65-4.4-4.25-4.36-14.99-5.43-14.23-2.43,1.63-3.99-3.23-4.29-6.11-.24-2.33,.56-3.57,1.52-3.32h0c-.06-.12-.46-1.57-.84-3.72-.55,.2-1.05,.4-1.5,.6-.18,2.22,.21,4.71,.17,7.08-.08,3.94-.79,3.94-1.61,3.94,0,0-.03-.06-.07-.15-.81,4.21-2.23,8.51-4.62,12.24-3.53,5.5-3.06,9.81-3.06,9.81,0,0,7.06,1.09,15.27,1.98,2.44-6.75,4.14-6.06,4.14-6.06Z"/><path class="cls-6" d="M78.55,76.44c-1.02,.9-2.12,1.72-3.3,2.41-1,.59-2.07,1.08-3.17,1.43-1.01,.32-2.05,.54-3.1,.64-1.31,.13-2.65,.09-3.95-.11-1.07-.17-2.11-.45-3.12-.85-1.13-.44-2.2-1.02-3.2-1.69-.93-.62-1.79-1.33-2.62-2.08-.06,.93-.17,1.95-.42,3.03,.75,1,2.15,1.95,4.15,2.84,4.37,1.95,6.66,2.02,7.83,2.04,1.18-.02,3.46-.1,7.83-2.04,2-.89,3.4-1.84,4.15-2.84-.28-1.21-.39-2.36-.44-3.38-.22,.2-.43,.41-.65,.6Z"/><path class="cls-7" d="M103.11,124.05s.07-.05,.11-.07c0-.26-.01-.53-.02-.79-.03,.31-.06,.6-.09,.86Z"/><path class="cls-7" d="M77.56,96.42c-.08,6.49,.28,25.03,.2,34.57,.67,0,1.33,0,1.99,0,.08-6.06,.25-13.55,.15-15.94h0c-.24-1.51-.27-2.6,.02-2.72,1.05-.42,21.29-.21,22.98,0,.21,.03,.37,.26,.49,.66,.17-2.15,.46-3.94,.92-4.98,2.5-5.71,2.83-11.59,7.51-10.93,.36,.05,.72,.16,1.08,.31,.03-.04,.07-.09,.09-.12,.35-.53-18.06-7.42-23.77-8.86-.87-.36-1.69-.72-2.46-1.08v.02c0,1.31-.5,6.4-9.19,9.07Z"/><path class="cls-7" d="M56.94,96.16c-7.91-2.73-8.38-7.53-8.38-8.81,0-.06,0-.11,0-.16-1.07,.52-2.25,1.02-3.51,1.53-5.32,1.47-22.88,7.93-23.02,8.67,.36-.15,.72-.26,1.09-.31,4.68-.67,5.01,5.21,7.51,10.93,1.18,2.69,1.25,10.39,1.08,16.38,4.43,2.75,9.2,4.99,14.23,6.66,3.33-.02,6.98-.04,10.77-.06,.2-15.36,.32-29.18,.24-34.85Z"/><path class="cls-5" d="M61.92,79.96c1,.39,2.05,.68,3.12,.85,1.3,.21,2.64,.25,3.95,.11,1.05-.11,2.09-.32,3.1-.64,1.11-.36,2.17-.84,3.17-1.43,1.18-.69,2.27-1.51,3.3-2.41,.22-.19,.44-.4,.65-.6,.1-.1,.21-.19,.32-.29,4.4-4.25,4.36-14.99,5.43-14.23,2.43,1.63,3.98-3.23,4.29-6.11,.26-2.42-.63-3.66-1.65-3.28h0s-.3,.2-.69,.5c-.11,.1-.22,.19-.31,.25-.47,.38-.99,.87-1.28,1.36-.64,1.05-.48-4.13-1.39-5.48-.4-.58-.72-1.36-1.11-2.08-4.24-1-9.54-1.77-15.35-1.77s-11.57,.85-15.95,1.92c-.15,.31-.31,.6-.48,.86-1.64,2.42-.46,6.89-1.46,5.99-.37-.33-.74-.55-1.08-.72-.05-.02-.1-.04-.15-.08-.52-.26-.94-.43-1.14-.79-.96-.25-1.77,.99-1.52,3.32,.3,2.88,1.86,7.74,4.29,6.11,1.06-.76,1.02,9.98,5.43,14.23,.23,.22,.48,.43,.72,.65,.83,.75,1.69,1.46,2.62,2.08,1.01,.67,2.08,1.25,3.2,1.69Z"/><path class="cls-13" d="M48.32,52.68c.05,.03,.1,.05,.15,.08,.34,.18,.71,.39,1.08,.72,1,.89-.18-3.58,1.46-5.99,.17-.25,.33-.55,.48-.86-1.98,.49-3.73,1.02-5.16,1.54,.38,2.15,.78,3.6,.84,3.72h0c.19,.36,.62,.54,1.14,.79Z"/><path class="cls-13" d="M82.79,46.48c.39,.72,.72,1.49,1.11,2.08,.91,1.34,.75,6.52,1.39,5.48,.3-.49,.82-.98,1.28-1.36,.11-.09,.21-.17,.31-.25,.39-.3,.69-.5,.69-.5h0c.06-.35,.59-1.7,1.06-3.7-1.58-.6-3.56-1.21-5.86-1.76Z"/><path class="cls-8" d="M77.56,96.42c-2.3,.71-5.16,1.25-8.74,1.5v.13c-.4-.01-.78-.04-1.17-.06-.39,.02-.77,.04-1.17,.06v-.13c-4.01-.29-7.12-.93-9.54-1.76,.08,5.67-.04,19.5-.24,34.85,6.88-.03,14.23-.03,21.06-.02,.08-9.53-.28-28.08-.2-34.57Z"/><path class="cls-9" d="M56.94,96.16c2.42,.84,5.53,1.48,9.55,1.76v.13c.4-.01,.78-.04,1.17-.06,.39,.02,.77,.04,1.17,.06v-.13c3.58-.26,6.44-.79,8.74-1.5,8.69-2.67,9.19-7.75,9.19-9.07v-.02c0-1.04-.92,.25-2.28-3.5-.03-.08-.06-.15-.09-.23-2.47-6.69-4.13-6.02-4.13-6.02,0,.56-.23,1.1-.63,1.63-.75,1-2.15,1.95-4.15,2.84-4.37,1.95-6.66,2.02-7.83,2.04-1.17-.02-3.46-.1-7.83-2.04-2-.89-3.4-1.84-4.15-2.84-.39-.53-.62-1.07-.63-1.63,0,0-1.7-.69-4.14,6.06-.02,.06-.05,.12-.07,.18-1.25,3.51-2.18,2.57-2.27,3.36,0,.05,0,.1,0,.16,0,1.27,.47,6.08,8.38,8.81Z"/><path class="cls-10" d="M83.3,125.83c-.91-.3-2.8-6.92-3.4-10.77h0c.1,2.39-.07,9.88-.15,15.94,3.04,0,5.96,.02,8.65,.05,4.03-1.34,7.89-3.05,11.54-5.09-5.6,.15-15.61,.23-16.64-.11Z"/><path class="cls-9" d="M103.39,113c-.12-.39-.27-.63-.49-.66-1.69-.21-21.92-.42-22.98,0-.3,.12-.26,1.21-.02,2.72,.6,3.86,2.49,10.47,3.4,10.77,1.03,.34,11.04,.27,16.64,.11,1.08-.6,2.13-1.24,3.17-1.9,.03-.27,.06-.55,.09-.86-.07-3.39-.06-7.15,.19-10.19Z"/><path class="cls-4" d="M77.76,130.99c-6.83-.02-14.18,0-21.06,.02-3.79,.01-7.44,.03-10.77,.06,6.67,2.21,13.79,3.43,21.2,3.43s14.58-1.22,21.27-3.45c-2.69-.02-5.61-.04-8.65-.05-.66,0-1.32,0-1.99,0Z"/><path class="cls-1" d="M91.79,53.81c0-.44-.01-.87-.02-1.3,0,.45,0,.88,0,1.3h.03Z"/><path class="cls-1" d="M43.02,53.81h.03c0-.42,0-.85,0-1.3,0,.43,0,.85-.02,1.3Z"/><path class="cls-1" d="M46.99,34.4c4.19-4.03,9.94-5.56,14.28-6.12,1.06-3.1,2.19-6.19,2.98-8.33-4.17,.6-10.83,2.51-15.54,8.36-2.82,3.49-4.21,6.75-4.91,10.22,.73-1.36,1.77-2.75,3.19-4.13Z"/><path class="cls-1" d="M73.02,28.21c4.4,.5,10.49,1.98,14.88,6.2,1.37,1.32,2.37,2.66,3.09,3.96-.71-3.42-2.1-6.62-4.88-10.06-4.92-6.1-11.96-7.92-16.07-8.43,.79,2.13,1.91,5.22,2.98,8.33Z"/><path class="cls-3" d="M61.27,28.28c3.57-.46,6.18-.28,6.18-.28,0,0,2.32-.17,5.58,.2-1.07-3.11-2.19-6.2-2.98-8.33-.42-1.13-.74-2-.91-2.45-.31-.83-1.97-.82-1.97-.82,0,0-1.66,0-1.97,.82-.17,.47-.51,1.36-.94,2.53-.79,2.15-1.92,5.23-2.98,8.33Z"/><path class="cls-11" d="M89.98,48.77c.18,2.21-.22,4.7-.17,7.07,.08,3.94,.96,3.94,1.78,3.94h0c.01-.06,.27-.91,.19-1.31-.05-.27-.04-2.11-.02-4.66,0-.42,0-.85,0-1.3,0-.93,.01-1.92,.01-2.94-.02,.05-.04,.08-.04,.08-.45-.27-1.06-.57-1.77-.88Z"/><path class="cls-11" d="M45,55.84c.05-2.37-.34-4.86-.17-7.08-.73,.31-1.35,.61-1.8,.89,0,1,0,1.96,.01,2.86,0,.45,0,.88,0,1.3,.02,2.55,.03,4.39-.02,4.66-.06,.31,.17,.89,.29,1.16,.04,.09,.07,.15,.07,.15,.82,0,1.53,0,1.61-3.94Z"/><path class="cls-14" d="M91.79,49.23c0,.12,0,.23,0,.34,.29-.67,2.27-5.66-.8-11.2,.62,2.99,.72,6.15,.75,9.77,.03,.35,.05,.71,.05,1.09Z"/><path class="cls-14" d="M43.08,48.13c.03-3.55,.12-6.66,.72-9.6-3.19,5.89-.76,11.12-.76,11.12h0c0-.14,0-.28,0-.42,0-.38,.02-.74,.05-1.09Z"/><path class="cls-12" d="M44.84,48.76c.46-.2,.95-.39,1.5-.6-.15-.87-.3-1.85-.42-2.9-.69,1.02-.99,2.21-1.09,3.49Z"/><path class="cls-14" d="M44.84,48.76c.46-.2,.95-.39,1.5-.6-.15-.87-.3-1.85-.42-2.9-.69,1.02-.99,2.21-1.09,3.49Z"/><path class="cls-12" d="M89.98,48.77c-.09-1.13-.33-2.18-.85-3.11-.13,.94-.3,1.81-.48,2.57,.48,.18,.93,.36,1.33,.54Z"/><path class="cls-14" d="M89.98,48.77c-.09-1.13-.33-2.18-.85-3.11-.13,.94-.3,1.81-.48,2.57,.48,.18,.93,.36,1.33,.54Z"/><path class="cls-5" d="M51.5,46.62c4.38-1.07,9.93-1.92,15.95-1.92s11.11,.77,15.35,1.77c-.51-.93-1.13-1.78-2.22-1.98-1.92-.36-15.95,1.2-24.46-3.33-.14-.08-.27-.12-.4-.17-.41,0-.82,.02-1.22,.06-1.38,.7-2.01,3.58-2.98,5.57Z"/><path class="cls-14" d="M51.5,46.62c4.38-1.07,9.93-1.92,15.95-1.92s11.11,.77,15.35,1.77c-.51-.93-1.13-1.78-2.22-1.98-1.92-.36-15.95,1.2-24.46-3.33-.14-.08-.27-.12-.4-.17-.41,0-.82,.02-1.22,.06-1.38,.7-2.01,3.58-2.98,5.57Z"/><path class="cls-13" d="M51.5,46.62c.97-1.99,1.6-4.87,2.98-5.57-3.41,.27-6.32,1.45-8.25,3.79-.11,.14-.21,.28-.31,.42,.12,1.05,.26,2.03,.42,2.9,1.43-.52,3.17-1.05,5.16-1.54Z"/><path class="cls-14" d="M51.5,46.62c.97-1.99,1.6-4.87,2.98-5.57-3.41,.27-6.32,1.45-8.25,3.79-.11,.14-.21,.28-.31,.42,.12,1.05,.26,2.03,.42,2.9,1.43-.52,3.17-1.05,5.16-1.54Z"/><path class="cls-13" d="M80.58,44.49c1.08,.2,1.71,1.05,2.22,1.98,2.3,.55,4.27,1.16,5.86,1.76,.18-.77,.35-1.63,.48-2.57-.16-.28-.33-.56-.55-.82-2.3-2.79-5.99-3.94-10.26-3.86-4.27,.08-10.92,0-10.92,0,0,0-6.65,.09-10.92,0-.27,0-.52,0-.79,.01,.13,.04,.26,.09,.4,.17,8.52,4.53,22.54,2.97,24.46,3.33Z"/><path class="cls-14" d="M80.58,44.49c1.08,.2,1.71,1.05,2.22,1.98,2.3,.55,4.27,1.16,5.86,1.76,.18-.77,.35-1.63,.48-2.57-.16-.28-.33-.56-.55-.82-2.3-2.79-5.99-3.94-10.26-3.86-4.27,.08-10.92,0-10.92,0,0,0-6.65,.09-10.92,0-.27,0-.52,0-.79,.01,.13,.04,.26,.09,.4,.17,8.52,4.53,22.54,2.97,24.46,3.33Z"/><path class="cls-1" d="M48.69,40.33c1.61-.86,5.62-1.28,9.52-1.47,.2-1.9,1.56-6.25,3.05-10.57-4.34,.56-10.09,2.1-14.28,6.12-1.43,1.37-2.46,2.77-3.19,4.13-.59,2.94-.69,6.05-.72,9.6,.31-3.99,2.37-6.07,5.62-7.81Z"/><path class="cls-14" d="M48.69,40.33c1.61-.86,5.62-1.28,9.52-1.47,.2-1.9,1.56-6.25,3.05-10.57-4.34,.56-10.09,2.1-14.28,6.12-1.43,1.37-2.46,2.77-3.19,4.13-.59,2.94-.69,6.05-.72,9.6,.31-3.99,2.37-6.07,5.62-7.81Z"/><path class="cls-1" d="M87.9,34.4c-4.38-4.21-10.48-5.7-14.88-6.2,1.49,4.33,2.86,8.7,3.07,10.62,4.06,.19,8.36,.6,10.03,1.5,3.24,1.74,5.3,3.81,5.62,7.81-.03-3.62-.13-6.77-.75-9.77-.72-1.31-1.72-2.64-3.09-3.96Z"/><path class="cls-14" d="M87.9,34.4c-4.38-4.21-10.48-5.7-14.88-6.2,1.49,4.33,2.86,8.7,3.07,10.62,4.06,.19,8.36,.6,10.03,1.5,3.24,1.74,5.3,3.81,5.62,7.81-.03-3.62-.13-6.77-.75-9.77-.72-1.31-1.72-2.64-3.09-3.96Z"/><path class="cls-3" d="M73.02,28.21c-3.25-.37-5.58-.2-5.58-.2,0,0-2.61-.19-6.18,.28-1.48,4.32-2.85,8.67-3.05,10.57,4.68-.24,9.19-.17,9.19-.17,0,0,4.19-.07,8.68,.14-.21-1.92-1.58-6.29-3.07-10.62Z"/><path class="cls-14" d="M73.02,28.21c-3.25-.37-5.58-.2-5.58-.2,0,0-2.61-.19-6.18,.28-1.48,4.32-2.85,8.67-3.05,10.57,4.68-.24,9.19-.17,9.19-.17,0,0,4.19-.07,8.68,.14-.21-1.92-1.58-6.29-3.07-10.62Z"/><path class="cls-11" d="M44.84,48.76c.1-1.28,.4-2.47,1.09-3.49,.1-.14,.2-.29,.31-.42,1.93-2.34,4.84-3.51,8.25-3.79,.4-.03,.81-.05,1.22-.06,.26,0,.52-.02,.79-.01,4.27,.08,10.92,0,10.92,0,0,0,6.65,.09,10.92,0,4.27-.08,7.96,1.07,10.26,3.86,.21,.26,.39,.53,.55,.82,.52,.93,.76,1.99,.85,3.11,.71,.31,1.32,.61,1.77,.88,0,0,.01-.03,.04-.08,0-.11,0-.23,0-.34,0-.38-.02-.74-.05-1.09-.31-3.99-2.37-6.07-5.62-7.81-1.68-.9-5.98-1.31-10.03-1.5-4.49-.21-8.68-.14-8.68-.14,0,0-4.51-.07-9.19,.17-3.9,.2-7.92,.62-9.52,1.47-3.24,1.74-5.3,3.81-5.62,7.81-.03,.35-.05,.71-.05,1.09,0,.14,0,.28,0,.42,.46-.27,1.07-.58,1.8-.89Z"/><path class="cls-14" d="M44.84,48.76c.1-1.28,.4-2.47,1.09-3.49,.1-.14,.2-.29,.31-.42,1.93-2.34,4.84-3.51,8.25-3.79,.4-.03,.81-.05,1.22-.06,.26,0,.52-.02,.79-.01,4.27,.08,10.92,0,10.92,0,0,0,6.65,.09,10.92,0,4.27-.08,7.96,1.07,10.26,3.86,.21,.26,.39,.53,.55,.82,.52,.93,.76,1.99,.85,3.11,.71,.31,1.32,.61,1.77,.88,0,0,.01-.03,.04-.08,0-.11,0-.23,0-.34,0-.38-.02-.74-.05-1.09-.31-3.99-2.37-6.07-5.62-7.81-1.68-.9-5.98-1.31-10.03-1.5-4.49-.21-8.68-.14-8.68-.14,0,0-4.51-.07-9.19,.17-3.9,.2-7.92,.62-9.52,1.47-3.24,1.74-5.3,3.81-5.62,7.81-.03,.35-.05,.71-.05,1.09,0,.14,0,.28,0,.42,.46-.27,1.07-.58,1.8-.89Z"/><path class="cls-8" d="M30.63,108.02c-2.5-5.71-2.83-11.59-7.51-10.93-.36,.05-.72,.16-1.09,.31-2.66,1.09-5.3,4.74-8.29,10.71,4.95,6.45,11.03,11.98,17.96,16.29,.17-6,.1-13.69-1.08-16.38Z"/><path class="cls-8" d="M112.9,97.4c-.36-.15-.72-.25-1.08-.31-4.68-.67-5.01,5.21-7.51,10.93-.45,1.04-.74,2.83-.92,4.98-.25,3.04-.27,6.8-.19,10.19,0,.27,.01,.53,.02,.79,6.84-4.36,12.85-9.91,17.72-16.39-2.88-5.67-5.45-9.14-8.04-10.19Z"/></g></g></svg>