<?xml version="1.0" encoding="UTF-8"?><svg id="_이어_2" xmlns="http://www.w3.org/2000/svg" viewBox="0 0 134.49 134.49"><defs><style>.cls-1{fill:#f2f2f2;}.cls-2{fill:#fff;}.cls-3{fill:#e5e5e5;}.cls-4{fill:#866a5e;}.cls-5{fill:#3493a9;}.cls-6{fill:#a3a3a3;}.cls-7{fill:#534d46;}.cls-8{fill:#7a5f56;}.cls-9{fill:#4ea5b8;}</style></defs><g id="Object"><circle class="cls-1" cx="67.25" cy="67.25" r="67.25"/><g><path class="cls-5" d="M38.9,125.63c-.06-1.17-.1-3.72,.41-6.34,0-.44-.02-.89-.03-1.35-.76-7.39-2.43-20.18-7.49-21.95-2.54,2.69-5.34,9.49-7.28,16.96-.38,1.47-.9,3.15-1.48,4.93,4.92,4.3,10.46,7.89,16.48,10.62-.03-.73-.05-1.52-.07-2.37-.28,0-.52-.22-.54-.5Z"/><path class="cls-5" d="M105.02,96.25c-5.06,1.77-6.51,13.72-7.27,21.11,0,3.46,.04,6.72-.13,9.88,5.69-2.89,10.92-6.56,15.54-10.88-.38-1.22-.72-2.37-.99-3.41-2.14-8.25-5.34-15.67-8.06-17.65,.24,.26,.78,.57,.92,.95Z"/><path class="cls-8" d="M56.44,84.86c-.55,.72-1.54,1.79-2.15,2.37-.68,.57-1.45,1.4-2.24,2.51,1.14,1.71,3.59,5.26,6.55,8.86,4.36,5.31,9.58,8.57,9.83,8.73,.2-.12,3.61-2.26,7.2-5.85,.07-.07,.14-.14,.2-.21h.01c.36-.39,.69-.75,.98-1.08,3.05-3.59,5.19-6.46,6.57-8.44,.04-.05,.07-.1,.1-.15,.67-.96,1.15-1.7,1.46-2.2-.6-.59-1.27-1.14-2.02-1.63-.29-.42-.7-.75-1.01-1.09-.63-.68-.83-.81-1.62-1.84-.02-.03-.04-.07-.07-.09,.03-.02,.06-.04,.09-.06-2.26-3.15-2.54-6.73-2.55-9.06-.73,.59-1.48,1.14-2.29,1.62-.92,.54-1.9,.99-2.92,1.31-.92,.3-1.88,.49-2.85,.59-1.2,.12-2.43,.08-3.62-.1-.98-.16-1.94-.42-2.86-.78-1.03-.41-2.02-.94-2.94-1.55-.49-.33-.96-.68-1.41-1.05-.01,2.3-.29,5.8-2.46,8.9,.06,0,.12,.01,.17,.04,0,.02-.15,.21-.16,.23Z"/><path class="cls-4" d="M63.25,78.3c.92,.36,1.88,.62,2.86,.78,1.19,.19,2.42,.23,3.62,.1,.97-.1,1.92-.29,2.85-.59,1.02-.33,1.99-.78,2.92-1.31,.81-.47,1.56-1.03,2.29-1.62,.25-.2,.5-.39,.74-.6,.3-.27,.6-.54,.89-.82,4.04-3.9,4.01-13.77,4.98-13.07,2.23,1.5,3.66-2.96,3.94-5.61,.15-1.44-.14-2.41-.62-2.83-.03,.08-.07,.12-.11,.11-1.88-.39-1.9,1.71-2.45,1.57-1.99-.52-6.38-4.43-11.31-8.35-6.22-4.95-9.92-6.32-13.69-6.75,0,0-.3,2.12-4.08,5.25-3.77,3.13-4.42,9.68-5.21,9.18-.5-.32-1.28,.23-1.78-1.16-.58,.32-.96,1.35-.79,2.97,.28,2.65,1.71,7.11,3.94,5.61,.98-.7,.94,9.17,4.99,13.07,.53,.51,1.08,.99,1.66,1.45,.46,.37,.92,.72,1.41,1.05,.92,.62,1.91,1.15,2.94,1.55Z"/><path class="cls-9" d="M55.6,124.83h0l-.2,.02c-.28,.02-.52-.18-.55-.46-.48-4.53-2.76-11.45-8.54-10.98-5.67,.46-5.59,9.76-5.47,12.11,.01,.29-.21,.54-.5,.56l-.22,.02c.03,.34,.08,1.27,.17,2.76,5.12,2.24,10.57,3.87,16.26,4.78-.57-5.16-.89-8.14-.94-8.81Z"/><path class="cls-9" d="M91.09,115.1c-.21,1.68-.4,3.12-.4,3.99,0,.09-.03,.17-.05,.26,1.07,.54,1.8,1.64,1.8,2.91,0,1.81-1.47,3.28-3.28,3.28s-3.28-1.47-3.28-3.28c0-1.67,1.26-3.03,2.87-3.24,0-.98,.18-2.39,.41-4.17,.75-5.86,1.87-15.28-1.64-21.95-1.68,2.51-4.2,6.17-6.44,8.92-4.42,5.44-11.91,9.91-12.64,10.06h0s-.02,0-.02,0c0,0-.02,0-.02,0h0c-.73-.16-8.24-4.63-12.67-10.07-1.99-2.45-4.22-5.61-5.87-8.05-1.66,3.93-2.93,9.63-2.75,17.68h0c5.8,.18,9,6.31,9.66,12.76,.03,.29-.19,.54-.47,.56h-.06c.06,.68,.38,3.71,.96,8.97,3.28,.49,6.63,.75,10.05,.75,10.93,0,21.25-2.63,30.37-7.25,.17-3.16,.13-6.41,.13-9.88,.76-7.39,2.2-19.34,7.27-21.11-.14-.38-.68-.69-.92-.95-.02-.02-.04-.04-.06-.06-.5-.66-9.19-3.43-14.64-5.21,0,0-.23,.36-.6,.93,4.43,7.21,3.1,17.69,2.28,24.13Z"/><path class="cls-9" d="M39.28,117.94c.01,.47,.02,.91,.03,1.35,.06-.32,.13-.65,.21-.97,1.16-4.62,3.58-6.23,5.69-6.7,0-.04-.03-.08-.03-.12-.21-9.38,1.41-15.54,3.46-19.55-.77-1.16-1.25-1.91-1.25-1.91l3.09-1.05h.01c-3.94,1.37-17.01,5.46-17.8,6.12-.45,.38-.75,.48-.9,.89h0c5.06,1.77,6.73,14.56,7.49,21.95Z"/><path class="cls-9" d="M39.47,126.14s-.02,0-.04,0c.02,.85,.04,1.64,.07,2.37l.11,.05c-.07-1.28-.12-2.1-.15-2.41h0Z"/><path class="cls-9" d="M83.39,91.76c-1.38,1.98-3.52,4.85-6.57,8.44-.28,.33-.61,.69-.98,1.07,.8-.82,1.61-1.7,2.39-2.65,2.05-2.51,3.86-4.99,5.16-6.85Z"/><path class="cls-9" d="M75.83,101.27c-.07,.07-.14,.14-.2,.21,.07-.07,.14-.14,.2-.21Z"/><path class="cls-9" d="M84.95,89.41c-.31,.49-.79,1.23-1.46,2.2,.64-.92,1.14-1.67,1.48-2.18l-.02-.02Z"/><path class="cls-5" d="M88.8,90.97c.37-.57,.6-.92,.6-.93h0l-1.64-.56c.38,.48,.72,.98,1.03,1.49Z"/><path class="cls-5" d="M50.48,88.98l-3.09,1.05s.48,.75,1.25,1.91c.59-1.16,1.21-2.14,1.84-2.97Z"/><path class="cls-5" d="M68.4,111.88h0s.02,0,.02,0c0,0,.02,0,.02,0h0c.73-.16,8.22-4.63,12.64-10.07,2.23-2.75,4.76-6.41,6.44-8.92-.67-1.27-1.51-2.45-2.55-3.48-.34,.51-.84,1.26-1.48,2.18-.04,.05-.07,.1-.1,.15-1.29,1.86-3.1,4.34-5.16,6.85-.78,.95-1.59,1.84-2.39,2.65h-.01c-.07,.08-.14,.15-.2,.22-3.59,3.6-7,5.73-7.2,5.85-.25-.15-5.47-3.41-9.83-8.73-2.96-3.61-5.4-7.15-6.55-8.86-.75,1.06-1.5,2.39-2.19,4.03,1.65,2.44,3.88,5.6,5.87,8.05,4.43,5.44,11.94,9.91,12.67,10.06Z"/><path class="cls-7" d="M50.88,53.74c.78,.5,1.43-6.05,5.21-9.18,3.77-3.13,4.08-5.25,4.08-5.25,3.77,.43,7.47,1.79,13.69,6.75,4.93,3.92,9.32,7.83,11.31,8.35,.55,.14,.57-1.96,2.45-1.57,.03,0,.07-.03,.11-.11,.49-1.08,.83-10.01-2.84-16.13-4.55-7.57-13.45-10.85-21.33-8.49-4.94,1.48-5.22,3.63-7.44,4.22-4.62,1.21-7.48,8.47-7.48,15.52,0,2.55,.19,3.95,.47,4.73,.5,1.39,1.28,.84,1.78,1.16Z"/><path d="M48.64,91.95c-2.04,4.01-3.66,10.17-3.46,19.55,0,.04,.02,.08,.03,.12-2.11,.47-4.53,2.08-5.69,6.7-.08,.32-.15,.65-.21,.97-.51,2.62-.47,5.16-.41,6.34,.01,.29,.25,.5,.54,.5,.01,0,.02,0,.04,0,0,0,0,0,.01,0l.63-.05,.22-.02c.29-.02,.51-.27,.5-.56-.11-2.35-.2-11.65,5.47-12.11,5.78-.47,8.06,6.46,8.54,10.98,.03,.28,.27,.48,.55,.46l.2-.02,.64-.05h.06c.29-.03,.5-.28,.47-.57-.66-6.45-3.86-12.58-9.66-12.75h0c-.18-8.06,1.09-13.76,2.75-17.69,.69-1.64,1.44-2.97,2.19-4.03,.79-1.12,1.56-1.94,2.24-2.51,.61-.59,1.6-1.65,2.15-2.37,0-.02,.15-.21,.16-.23-.05-.02-.11-.03-.17-.04-.24-.02-.54,.08-.76,.16-.8,.3-3,1.34-5.18,4.21h-.01c-.63,.84-1.25,1.82-1.84,2.98Z"/><path class="cls-3" d="M39.49,126.14s0,0-.01,0h0c.02,.31,.08,1.13,.15,2.42,.22,.1,.44,.2,.66,.3-.08-1.5-.14-2.43-.17-2.76l-.63,.05Z"/><path class="cls-3" d="M55.6,124.83h0c.05,.67,.37,3.65,.94,8.81,.22,.04,.44,.07,.66,.11-.58-5.26-.91-8.29-.96-8.97l-.64,.05Z"/><path d="M80.31,84.86c.79,1.03,.99,1.15,1.62,1.84,.31,.34,.72,.67,1.01,1.09,.75,.49,1.41,1.04,2.02,1.63l.02,.02c1.04,1.03,1.88,2.2,2.55,3.48,3.51,6.67,2.39,16.09,1.64,21.95-.23,1.78-.4,3.18-.41,4.17,.13-.02,.27-.04,.41-.04,.53,0,1.03,.14,1.47,.36,.02-.08,.05-.17,.05-.26,0-.86,.18-2.31,.4-3.99,.82-6.44,2.15-16.92-2.28-24.13-.32-.51-.66-1.02-1.03-1.49-1.59-2.01-3.74-3.68-6.61-4.81-.3-.12-.58-.09-.82,.06-.03,.02-.06,.03-.09,.06,.02,.02,.05,.06,.07,.09Z"/><path class="cls-6" d="M85.89,122.26c0,1.81,1.47,3.28,3.28,3.28s3.28-1.47,3.28-3.28c0-1.28-.74-2.37-1.8-2.91-.44-.23-.94-.36-1.47-.36-.14,0-.27,.02-.41,.04-1.62,.2-2.87,1.57-2.87,3.24Zm3.28-2.28c1.26,0,2.28,1.02,2.28,2.28s-1.02,2.28-2.28,2.28-2.28-1.02-2.28-2.28,1.02-2.28,2.28-2.28Z"/><path class="cls-2" d="M89.16,124.54c1.26,0,2.28-1.02,2.28-2.28s-1.02-2.28-2.28-2.28-2.28,1.02-2.28,2.28,1.02,2.28,2.28,2.28Z"/></g></g></svg>