<?xml version="1.0" encoding="UTF-8"?><svg id="_이어_2" xmlns="http://www.w3.org/2000/svg" viewBox="0 0 134.49 134.49"><defs><style>.cls-1{fill:#f2f2f2;}.cls-2{fill:#eaeaea;}.cls-3{fill:#fff;}.cls-4{fill:#d1a385;}.cls-5{fill:#c69a81;}.cls-6{fill:#093e8c;}.cls-7{fill:#0b2a62;}.cls-8{fill:#0c387d;}.cls-9{fill:#534d46;}</style></defs><g id="Object"><circle class="cls-1" cx="67.25" cy="67.25" r="67.25"/><g><path class="cls-8" d="M113.66,96.74c-.74,1.15-8.37,18.11-10.02,25.84-.1,.48-.2,.94-.3,1.39,6.62-4.22,12.45-9.56,17.22-15.76-2.5-5.28-4.72-9.36-6.9-11.47Z"/><path class="cls-5" d="M67.41,86.93c6.41,0,10.7-3.5,12.9-6.42,.2-1.7,.02-3.34-.71-4.72l-.72-2.38c-.27,.35-.57,.69-.92,1-4.25,3.84-5.89,5.3-10.55,5.32-4.67-.02-6.3-1.48-10.55-5.32-.34-.3-.63-.63-.9-.98l-.71,2.35c-.74,1.39-.92,3.05-.71,4.76,2.21,2.91,6.49,6.38,12.87,6.38Z"/><polygon class="cls-5" points="55.9 73.35 55.9 73.35 55.9 73.35 55.9 73.35"/><path class="cls-5" d="M78.97,73.36v-.05s-.03,.03-.04,.04h.04Z"/><path class="cls-4" d="M56,73.33l-.03,.11c.27,.34,.56,.67,.9,.98,4.25,3.84,5.89,5.3,10.55,5.32,4.67-.02,6.3-1.48,10.55-5.32,.34-.31,.64-.65,.92-1l-.03-.09,.07,.02s.02-.03,.03-.04c3.37-4.48,1.68-11.8,4.14-11.71,3.79,.15,5.43-3.13,4.54-7.38-.56-2.65-2.55-2.44-3.63-1.64-.31,.88-.61,1.54-.82,1.48-.6-.18-.34-5.39,.6-11.49,1-6.5-6.99-3.67-12.57-3.85-5.59-.18-18.96-1.39-19.96,1.68-1,3.07,1.4,12.45,.6,12.81-.11,.05-.22,0-.34-.11,.04,.33,.03,.44-.05,.24-.49-1.22-3.57-2.52-4.28,.88-.89,4.24,.75,7.53,4.54,7.38,2.47-.1,.76,7.27,4.17,11.75h0s.07-.01,.1-.02Z"/><path class="cls-9" d="M51.85,53.21c.8-.36-1.6-9.75-.6-12.81,1-3.07,14.37-1.86,19.96-1.68,5.59,.18,13.57-2.65,12.57,3.85-.94,6.1-1.2,11.31-.6,11.49,.21,.06,.51-.6,.82-1.48,.58-1.66,1.18-4.12,1.18-4.12,2.79-1.62,1.8-13.36,1.8-15.16s-2.79-4.87-3.99-4.87-.2-5.05-8.38-7.22c-8.18-2.17-15.37-1.08-19.36,.9-3.99,1.99-6.99,5.41-8.78,5.96-1.8,.54,.6,1.8-.8,3.07-1.4,1.26,1,2.89,1.4,5.41,.4,2.53,1.4,10.65,2.2,11.55,.69,.78,1.53,4.28,2.26,5,.12,.11,.23,.16,.34,.11Z"/><path class="cls-3" d="M67.52,107.64c-.05,.05-.11,.1-.16,.13,.04-.01,.1-.06,.16-.13Z"/><path class="cls-3" d="M76.2,89.18c.8-.85,1.54-1.87,2.18-2.99-5.32,3.83-10.96,3.48-10.96,3.48,0,0-5.63,.31-10.93-3.48,.64,1.12,1.38,2.14,2.17,2.99,6.11,8.39,8.69,18.59,8.69,18.59h0s2.74-10.2,8.84-18.59Z"/><polygon class="cls-3" points="67.35 107.78 67.35 107.78 67.35 107.78 67.35 107.78"/><path class="cls-2" d="M67.41,89.67s5.64,.35,10.96-3.48c1-1.76,1.72-3.75,1.94-5.68-2.2,2.92-6.49,6.42-12.9,6.42s-10.66-3.47-12.87-6.38c.23,1.92,.95,3.9,1.94,5.64,5.3,3.79,10.93,3.48,10.93,3.48Z"/><path class="cls-8" d="M20.79,96.68h0c-2.19,2.08-4.42,6.16-6.93,11.45,4.78,6.24,10.64,11.61,17.29,15.85-.1-.46-.2-.92-.3-1.4-1.68-7.89-9.58-25.36-10.06-25.9Z"/><path class="cls-6" d="M113.66,96.74s.03-.05,.04-.06c.48-.55-5.01-3.51-11.99-6.64-4.38-1.96-8.1-4.62-11.73-6.6,.64,1.29,1.27,2.74,1.9,4.39,0,0-10.59,1.9-11.73,2.26-1.14,.35-.16,1.42-1.62,2.98-6.68,7.1-9.65,13.4-11.01,14.58-.06,.07-.12,.12-.16,.13h.62v26.7c13.01-.14,25.13-3.97,35.37-10.5,.1-.46,.19-.92,.3-1.39,1.65-7.74,9.28-24.69,10.02-25.84Zm-12.23,26.75h-30.18v-1.53h30.18v1.53Z"/><path class="cls-6" d="M66.52,107.78h.83c-1.29-.8-4.08-7.33-11.03-14.72-1.47-1.56-.48-2.63-1.62-2.98-1.14-.35-11.73-2.26-11.73-2.26,.54-1.41,1.08-2.67,1.62-3.81-3.7,1.78-7.55,4.11-11.81,6.02-6.98,3.13-12.47,6.09-11.99,6.64h0c.48,.55,8.38,18.02,10.06,25.9,.1,.48,.2,.94,.3,1.4,10.24,6.53,22.36,10.36,35.37,10.5v-26.7Zm-33.4,15.71v-1.53h30.18v1.53h-30.18Z"/><rect class="cls-2" x="33.12" y="121.95" width="30.18" height="1.53"/><rect class="cls-2" x="71.26" y="121.95" width="30.18" height="1.53"/><path class="cls-2" d="M67.97,107.78h-1.44v26.7c.24,0,.48,.02,.72,.02s.48-.02,.72-.02v-26.7Z"/><path class="cls-7" d="M42.97,87.83s10.59,1.9,11.73,2.26c1.14,.35,.16,1.42,1.62,2.98,6.95,7.39,9.73,13.92,11.03,14.72h0s-2.59-10.21-8.69-18.59c-.79-.84-1.54-1.87-2.17-2.99-.99-1.75-1.71-3.73-1.94-5.64-.21-1.71-.03-3.37,.71-4.76l.71-2.35,.03-.11-.1,.02h0c-2.87,.7-7.14,1.92-11.31,10.66-.54,1.14-1.08,2.4-1.62,3.81Z"/><path class="cls-7" d="M78.86,73.33l.03,.09,.72,2.38c.73,1.38,.91,3.02,.71,4.72-.23,1.93-.94,3.92-1.94,5.68-.64,1.12-1.38,2.15-2.18,2.99-6.11,8.39-8.84,18.59-8.84,18.59h0c.05-.03,.11-.08,.16-.13,1.37-1.19,4.34-7.48,11.01-14.58,1.47-1.56,.48-2.63,1.62-2.98,1.14-.35,11.73-2.26,11.73-2.26-.63-1.66-1.26-3.11-1.9-4.39-4.07-8.2-8.21-9.39-11.01-10.08h-.04l-.07-.03Z"/></g></g></svg>