<?xml version="1.0" encoding="UTF-8"?><svg id="_이어_2" xmlns="http://www.w3.org/2000/svg" viewBox="0 0 134.49 134.49"><defs><style>.cls-1{fill:#f2f2f2;}.cls-2{fill:#eaeaea;}.cls-3{fill:#f5f5f5;}.cls-4{fill:#eabc60;}.cls-5{fill:#e7b240;}.cls-6{fill:#edb888;}.cls-7{fill:#e2ae83;}.cls-8{fill:#111c14;}.cls-9{fill:#534d46;}.cls-10{fill:#3a3a3a;}.cls-11{fill:#2f2f2f;}</style></defs><g id="Object"><circle class="cls-1" cx="67.25" cy="67.25" r="67.25"/><g><path class="cls-7" d="M67.42,90.67h.01s0-.02,0-.03c0,0,0,.02,0,.03Z"/><path class="cls-7" d="M65.17,103.17s-.09-.06-.13-.08c.03,.1,.07,.2,.1,.3,0-.08,.02-.15,.02-.21Z"/><path class="cls-7" d="M67.29,90.36c.07,.05,.1,.12,.12,.19-.02-.14,0-.27,.12-.36,7.55-5.78,10.61-9.69,12-10.84-.39-1.24-.59-2.44-.69-3.53-.13,.12-.26,.25-.4,.37-1,.88-2.08,1.69-3.23,2.36-.98,.58-2.03,1.05-3.11,1.4-.99,.32-2.01,.53-3.04,.63-1.28,.13-2.6,.09-3.87-.11-1.04-.17-2.07-.44-3.05-.83-1.1-.43-2.15-1-3.14-1.66-1.17-.78-2.26-1.69-3.27-2.67-.02-.02-.04-.04-.06-.07-.08,1.22-.27,2.6-.71,4.03,1.21,.68,4.1,4.77,12.35,11.09Z"/><path class="cls-3" d="M109,93.52c1.05,.38,1.8,.65,2.29,.84-.47-.26-1.27-.54-2.29-.84Z"/><path class="cls-3" d="M106.35,98.13c-.68,.2-2.4-.3-4.55-1.14v.02l-2.14-.85,.03-.04c-.57-.24-1.15-.5-1.73-.76h-.01l-1.8-.81v-.02c-.69-.32-1.38-.65-2.04-.97h0l-.08-.04c-.63-.3-1.24-.59-1.81-.87h-.01c-.59-.29-1.14-.56-1.63-.81h0l-.07-.03c-.24-.12-.46-.23-.68-.33l-.83-.41c-.23-.12-.44-.22-.6-.29-2.78-1.34-3.56-.34-1.46-4.96-.81-.37-1.57-.74-2.26-1.11-.03,5.14-10.99,17.98-10.65,14.46,.08-.87-.34-1.79-.99-2.7-.17,2.13-1.46,3.62-2.62,6.21-.09,.2-.28,.36-.49,.48,.35,2.93,1.47,16.52,2.61,31.08,10.35-.84,20.04-4.01,28.54-9.01,0-9.2,.55-18.19,1.97-20.62,1.34-2.28,2.3-4.63,3.3-6.5Zm-8.98,21.87c-.3,.93-7.16,4.25-8.88,4.25s-8.93-3.54-9.23-4.06c-.3-.52-.54-4.44,.65-4.44h16.63c.89,0,1.12,3.32,.82,4.25Z"/><path class="cls-2" d="M96.54,115.75h-16.63c-1.19,0-.95,3.92-.65,4.44,.3,.52,7.52,4.06,9.23,4.06s8.58-3.32,8.88-4.25c.3-.93,.07-4.25-.82-4.25Z"/><path d="M97.95,95.37c.58,.26,1.16,.52,1.73,.76,.26-.4,3.1-4.73,3.68-4.58-.51-.18-1.05-.36-1.62-.56h.02c-1.33,.5-2.23,2.1-3.81,4.39Z"/><path d="M94.09,93.58c.66,.32,1.35,.64,2.05,.97,.11-.16,2.93-4.45,3.52-4.28-.35-.12-.71-.25-1.08-.37-.28-.1-.55-.19-.82-.28-1.35,.65-2.08,1.68-3.67,3.97Z"/><path d="M101.79,96.99c2.15,.84,3.88,1.34,4.55,1.14,1.36-2.53,2.82-4.16,5.45-3.46,.11,.03,.21,.08,.31,.13,.13-.03-.07-.15-.8-.44-.5-.2-1.24-.47-2.29-.84-.87-.31-1.96-.69-3.28-1.15-1.32,.49-2.35,2.34-3.93,4.63Z"/><path d="M90.56,91.87c.5,.24,1.04,.51,1.63,.8,0,0,2.92-3.91,3.53-3.76-.64-.22-1.25-.43-1.82-.64-1.27,.69-1.75,1.3-3.34,3.6Z"/><path d="M92.2,92.67c.57,.28,1.18,.57,1.81,.87l-1.81-.87Z"/><path d="M90.49,91.83l-.68-.33c.21,.11,.44,.22,.68,.33Z"/><path d="M88.39,90.8c.16,.08,.37,.18,.6,.29l-.04-.02s2.22-3.7,2.82-3.55c-3.08-1.09-4.83-1.72-4.83-1.72l-.02,.03c-2.11,4.62-1.33,3.62,1.46,4.96Z"/><path class="cls-4" d="M99.67,96.13l-.03,.04,2.13,.85v-.02c1.59-2.29,2.62-4.14,3.95-4.63h0s-1.78-.62-2.36-.82h-.01c-.58-.14-3.42,4.19-3.68,4.59Z"/><path class="cls-4" d="M96.14,94.55v.02l1.79,.82h.01c1.58-2.3,2.48-3.9,3.81-4.39h-.02c-.1-.04-1.51-.53-2.07-.72h0c-.59-.16-3.41,4.12-3.52,4.28Z"/><path class="cls-4" d="M92.19,92.67h.01l1.81,.88,.08,.04h0c1.59-2.3,2.32-3.32,3.67-3.97h0s-1.44-.5-2.02-.71c0,0-.01,0-.02,0-.61-.14-3.53,3.76-3.53,3.76Z"/><path class="cls-4" d="M88.95,91.07l.04,.02,.83,.41,.68,.33,.07,.03h0c1.59-2.3,2.07-2.91,3.34-3.6h0s-1.53-.54-2.11-.75c0,0-.01,0-.01,0-.6-.15-2.82,3.55-2.82,3.55Z"/><path class="cls-6" d="M58.99,77.98c.99,.66,2.04,1.22,3.14,1.66,.98,.39,2.01,.67,3.05,.83,1.27,.2,2.59,.24,3.87,.11,1.03-.1,2.05-.31,3.04-.63,1.09-.35,2.13-.83,3.11-1.4,1.15-.68,2.23-1.48,3.23-2.36,.14-.12,.26-.24,.4-.37,.18-.17,.37-.34,.55-.51,4.32-4.17,4.28-14.7,5.32-13.95,2.38,1.6,3.91-3.16,4.2-5.99,.19-1.8-.26-2.93-.92-3.21-.21,.67-.44,1.17-.69,1.39-1.13,.98-1.64,3.49-1.71,3.87h-1.45c-1.12-1.23-.68-5.29-3.23-8.69-.98-1.3-1.32-2.76-1.53-4.04-5.48,1.13-10.81,1.33-11.51,1.35h-.08c-.2,0-.77-.03-1.61-.08-1.6,1.13-3.37,2.15-2.89,1.05,.64-1.49-2.28,.82-4.83,2.52-2.55,1.7-2.46,1.28-1.61-.21,.85-1.49-3.97,1.53-4.61,2.81-.64,1.27-.85,5.1-.85,5.1h-1.83c0-2.74-1.99-3.88-1.99-3.88,0,0-.14-.45-.32-1.22-.73,.19-1.26,1.32-1.06,3.24,.3,2.83,1.82,7.59,4.2,5.99,1.04-.74,1.01,9.68,5.26,13.89,.02,.02,.04,.05,.06,.07,1.01,.98,2.1,1.89,3.27,2.67Z"/><path class="cls-9" d="M79.38,44.68c.21,1.28,.55,2.74,1.53,4.04,2.55,3.4,2.1,7.46,3.23,8.69h1.45c.06-.37,.58-2.89,1.71-3.87,.25-.22,.48-.72,.69-1.39,.7-2.28,1.07-6.77,.63-10.81-2.44,1.59-5.86,2.64-9.23,3.34Z"/><path class="cls-9" d="M49.55,57.22h1.83s.21-3.82,.85-5.1c.64-1.27,5.46-4.29,4.61-2.81-.85,1.49-.94,1.91,1.61,.21,2.55-1.7,5.47-4.01,4.83-2.52-.47,1.1,1.29,.08,2.89-1.05-3.96-.24-13.93-1.18-19.19-4.65-.31,1.81-.45,3.83-.35,6.07,.08,2.08,.38,3.71,.61,4.75,.18,.77,.32,1.22,.32,1.22,0,0,1.99,1.14,1.99,3.88Z"/><path class="cls-3" d="M23.52,94.36c.5-.2,1.24-.47,2.29-.84-1.02,.31-1.82,.59-2.29,.84Z"/><path class="cls-3" d="M65.15,103.38c-.03-.1-.07-.2-.1-.3-.15-.11-.29-.23-.36-.39-1.19-2.66-2.51-4.17-2.62-6.4-.81,1.02-1.36,2.06-1.27,3.05,.34,3.57-10.87-9.61-10.65-14.63-.69,.38-1.45,.75-2.26,1.11,2.11,4.62,1.33,3.62-1.46,4.96-.16,.08-.37,.18-.6,.29l-.83,.41c-.21,.11-.44,.22-.68,.33l-.07,.03h0c-.5,.24-1.04,.51-1.63,.8h-.02c-.57,.29-1.17,.58-1.8,.88l-.08,.04h0c-.66,.32-1.35,.64-2.05,.97v.02l-1.79,.82h-.01c-.58,.25-1.16,.5-1.73,.74l.03,.04-2.13,.85v-.02c-2.12,.82-3.82,1.32-4.53,1.15,1,1.86,1.96,4.21,3.3,6.49,1.45,2.46,1.99,11.7,1.97,21.05,8.59,4.9,18.35,7.96,28.77,8.65,1.12-14.27,2.22-27.62,2.59-30.94Zm-26.92,8.02h16.68v3.03h-16.68v-3.03Zm-.77,8.6c-.3-.93-.07-4.25,.82-4.25h16.63c1.19,0,.95,3.92,.65,4.44-.3,.52-7.52,4.06-9.23,4.06s-8.58-3.32-8.88-4.25Z"/><path d="M69.92,103.17c.21-.12,.4-.27,.49-.48,1.15-2.59,2.44-4.08,2.62-6.21-1.75-2.41-5.21-4.71-5.6-5.82h-.01c-.04,.98-3.43,3.22-5.35,5.63,.11,2.23,1.44,3.73,2.62,6.4,.07,.16,.21,.28,.36,.39,.04,.03,.08,.06,.13,.08,0,.06-.02,.14-.02,.21-.38,3.33-1.48,16.68-2.59,30.94,1.49,.1,2.98,.17,4.5,.17,1.85,0,3.67-.1,5.48-.24-1.14-14.56-2.26-28.15-2.61-31.08Z"/><path class="cls-2" d="M55.56,120.18c.3-.52,.54-4.44-.65-4.44h-16.63c-.89,0-1.12,3.32-.82,4.25,.3,.93,7.16,4.25,8.88,4.25s8.93-3.54,9.23-4.06Z"/><path class="cls-2" d="M60.79,99.35c-.09-.99,.46-2.04,1.27-3.05,1.92-2.41,5.31-4.65,5.35-5.63,0,0,0-.02,0-.03,0,.01,0,.02,0,.03,.39,1.11,3.85,3.41,5.6,5.82,.66,.9,1.08,1.82,.99,2.7-.33,3.53,10.62-9.32,10.65-14.46,0-.14,0-.27-.02-.4-.09-.72-2.2-1.82-4.14-5.11-.2-.34-.49-.27-.99,.14-1.39,1.15-4.45,5.06-12,10.84-.12,.09-.14,.22-.12,.36-.02-.07-.05-.14-.12-.19-8.25-6.32-11.14-10.41-12.35-11.09-.29-.17-.49-.14-.64,.11-1.95,3.29-4.05,4.39-4.14,5.11,0,.07,0,.15-.01,.23-.22,5.02,10.98,18.19,10.65,14.63Z"/><rect class="cls-2" x="38.23" y="111.4" width="16.68" height="3.03"/><path class="cls-10" d="M64.31,33.42c-1.25-1.27-2.4-3.13-2.57-5.52-.24-3.41,.89-1.63,2.48-2.21,1.59-.58,2.23-2.15,3.28-2.15s1.69,1.58,3.28,2.15c1.59,.58,2.73-1.2,2.48,2.21-.17,2.37-1.31,4.21-2.54,5.49,9.9,.48,20.55,3.17,21.01,4.3,3.13-3.72,4.24-3.21,.87-7.65-3.49-4.59-10.82-11-24.71-11.05h0s-.05,0-.08,0-.05,0-.08,0h0c-13.89,.06-21.23,6.47-24.71,11.05-3.4,4.47-2.25,3.92,.94,7.74-.11-1.05,10.39-3.78,20.38-4.36Z"/><path class="cls-8" d="M44.28,38.57l-.35-.75c.09,.26,.21,.51,.35,.75Z"/><path class="cls-8" d="M66.18,45.95c.84,.05,1.41,.07,1.61,.08h.08c.7-.02,6.03-.22,11.51-1.35,3.37-.7,6.8-1.75,9.23-3.34,1.48-.96,2.6-2.13,3.11-3.52,.01-.04,0-.08,0-.13-.45-1.13-11.11-3.83-21.01-4.3-1.29,1.33-2.68,2.03-3.22,2.03s-1.91-.69-3.19-1.99c-9.98,.58-20.49,3.31-20.38,4.36,0,.01,0,.03,0,.04,11.39-1.59,23.73-1.4,23.85-1.4,.12,0,12.46-.19,23.85,1.4l-.37,.8c-1.45,1.37-21.17,2.21-23.47,2.21h-.01c-2.3,0-21.93-.83-23.46-2.2,.59,1.03,1.51,1.91,2.67,2.68,5.26,3.47,15.24,4.41,19.19,4.65Z"/><path class="cls-11" d="M67.78,40.83h.01c2.3,0,22.02-.84,23.47-2.21l.37-.8c-11.39-1.59-23.73-1.4-23.85-1.4-.12,0-12.46-.19-23.85,1.4l.35,.75,.02,.05h.01c1.53,1.38,21.16,2.21,23.46,2.21Z"/><path class="cls-5" d="M70.77,25.7c-1.59-.58-2.23-2.15-3.28-2.15s-1.69,1.58-3.28,2.15c-1.59,.58-2.73-1.2-2.48,2.21,.17,2.39,1.32,4.25,2.57,5.52,1.28,1.3,2.66,1.99,3.19,1.99s1.93-.7,3.22-2.03c1.24-1.27,2.37-3.12,2.54-5.49,.24-3.41-.89-1.63-2.48-2.21Z"/><path d="M28.52,98.14c.71,.17,2.41-.33,4.51-1.15-1.58-2.29-2.61-4.14-3.93-4.63-1.32,.46-2.41,.84-3.28,1.15-1.05,.38-1.8,.65-2.29,.84-.77,.3-.95,.42-.78,.44,.11-.04,.21-.1,.32-.13,2.63-.7,4.09,.93,5.45,3.47Z"/><path d="M38.68,94.55c.7-.32,1.39-.65,2.05-.97-1.59-2.3-2.32-3.32-3.67-3.97-.27,.09-.54,.19-.82,.28-.37,.13-.73,.25-1.08,.37,.59-.17,3.41,4.12,3.52,4.28Z"/><path d="M35.15,96.13c.57-.24,1.15-.5,1.73-.76-1.58-2.29-2.48-3.89-3.81-4.38h.02c-.57,.19-1.1,.38-1.62,.55,.58-.14,3.42,4.19,3.68,4.58Z"/><path d="M45.87,91.07l-.04,.02c.24-.12,.44-.22,.6-.29,2.78-1.34,3.56-.34,1.46-4.96l-.02-.03s-1.74,.63-4.83,1.72c.6-.15,2.82,3.55,2.82,3.55Z"/><path d="M42.63,92.67c.59-.29,1.14-.56,1.63-.8-1.59-2.3-2.07-2.91-3.34-3.6-.58,.2-1.19,.41-1.82,.64,.61-.14,3.53,3.76,3.53,3.76Z"/><path d="M40.81,93.54c.63-.3,1.23-.59,1.8-.87l-1.8,.87Z"/><path d="M45,91.5l-.68,.33c.24-.12,.46-.23,.68-.33Z"/><path class="cls-4" d="M33.03,96.99v.02l2.14-.85-.03-.04c-.26-.4-3.1-4.73-3.68-4.58h-.01c-.58,.2-2.36,.82-2.36,.82h0c1.32,.49,2.35,2.34,3.93,4.63Z"/><path class="cls-4" d="M36.88,95.37h.01l1.8-.81v-.02c-.12-.16-2.94-4.45-3.53-4.28h0c-.56,.19-1.97,.68-2.07,.72h-.02c1.32,.5,2.23,2.1,3.81,4.39Z"/><path class="cls-4" d="M40.73,93.58h0l.08-.04,1.8-.87h.02s-2.92-3.92-3.53-3.77c0,0-.01,0-.02,0-.58,.2-2.02,.71-2.02,.71h0c1.35,.65,2.08,1.68,3.67,3.97Z"/><path class="cls-4" d="M44.26,91.87h0l.07-.03,.68-.33,.83-.41,.04-.02s-2.22-3.7-2.82-3.55c0,0-.01,0-.01,0-.58,.2-2.11,.75-2.11,.75h0c1.27,.69,1.75,1.3,3.34,3.6Z"/><path class="cls-2" d="M31.81,104.63c-1.34-2.28-2.29-4.62-3.3-6.49-1.37-2.54-2.82-4.18-5.45-3.47-.11,.03-.21,.09-.32,.13-2.88,1.2-5,7.96-7.11,15.76,5.1,6.04,11.24,11.17,18.15,15.11,.02-9.35-.52-18.59-1.97-21.05Z"/><path class="cls-2" d="M112.1,94.8c-.1-.04-.2-.1-.31-.13-2.63-.7-4.08,.93-5.45,3.46-1.01,1.87-1.96,4.22-3.3,6.5-1.42,2.42-1.98,11.41-1.97,20.62,6.86-4.03,12.95-9.23,17.97-15.35-2.05-7.53-4.13-13.94-6.94-15.1Z"/></g></g></svg>