<?xml version="1.0" encoding="UTF-8"?><svg id="_이어_2" xmlns="http://www.w3.org/2000/svg" viewBox="0 0 134.49 134.49"><defs><style>.cls-1{fill:none;}.cls-2{fill:#f7ddcb;}.cls-3{fill:#f2f2f2;}.cls-4{fill:#005472;}.cls-5{fill:#00658f;}.cls-6{fill:#00597f;}.cls-7{fill:#fff;}.cls-8{fill:#ffe6d4;}</style></defs><g id="Object"><circle class="cls-3" cx="67.25" cy="67.25" r="67.25"/><g><path class="cls-1" d="M49.54,53.36c.13,.07,.27,.17,.4,.3,.15,.15,.28,.26,.4,.33-.19-.26-.44-.51-.8-.63Z"/><path class="cls-2" d="M54.09,99.79c3.19,4.52,12.83,21.59,14.12,28.76,.05,.15,.09,.3,.12,.44,.94-6.88,10.93-24.59,14.18-29.2,3.77-5.35,2.86-7.45,2.75-8.13-.19-1.13-.62-1.71-.94-2-.05-.03-.09-.05-.14-.08-1.62-.97-2.82-2.12-3.73-3.33-.21,.21-.49,.35-.84,.44,.11,1.74,4.02,4.8,4.8,7.09,.8,2.33-5.89,11.85-5.89,10.68s-4.91-4.17-5.52-5.28c-.61-1.11,0-2.58,0-6.14,0-1.28,.25-3.16,.66-5.1-.35,.16-.71,.34-1.07,.57-4.24,2.68-14.44,1.6-16.84,.53-.87-.39-1.08-.77-1.02-1.19-.66,.62-1.42,1.2-2.31,1.74-.05,.03-.09,.06-.14,.08-.32,.29-.75,.88-.94,2-.11,.68-1.03,2.78,2.75,8.13Z"/><path class="cls-2" d="M75.9,80.57c.18-.05,.33-.07,.5-.1,.17-.21,.35-.39,.53-.51,0,0,.39-.07,1.02-.05-.15-1.05-.19-2.01-.2-2.84-.68,.53-1.38,1.04-2.12,1.48-.94,.55-1.94,1.01-2.98,1.34-.94,.3-1.92,.5-2.91,.6-1.23,.12-2.48,.09-3.7-.11-1-.16-1.98-.43-2.92-.8-1.06-.42-2.06-.96-3.01-1.59-.43-.29-.84-.61-1.25-.93,0,.68-.03,1.45-.12,2.28,.37,.12,.8,.46,1.47,.81,1.37,.71,10.04,2.08,15.7,.41Z"/><path class="cls-4" d="M79.53,83.29c.08,1.26,.08,2.56,.07,3.3,0,.03,0,.06,.01,.09,.35-.1,.63-.23,.84-.44,.3-.3,.45-.74,.39-1.43-.04-.45-.1-.86-.17-1.24-.41-.12-.75-.21-.96-.24-.06,0-.12-.03-.18-.05Z"/><path class="cls-4" d="M55.75,89.03c2.4,1.07,12.6,2.15,16.84-.53,.36-.23,.71-.4,1.07-.57,.63-3,1.64-6.13,2.75-7.47-.17,.04-.32,.05-.5,.1-5.67,1.67-14.34,.3-15.7-.41-.67-.35-1.1-.68-1.47-.81-.39-.13-.7-.03-1.14,.55-.98,1.29-2.48,3.11-2.07,5.07,.26,1.25-.69,2.12-.79,2.86-.06,.42,.15,.81,1.02,1.19Z"/><path class="cls-6" d="M79.53,83.29c.06,.01,.11,.04,.18,.05,.21,.02,.55,.11,.96,.24,2,.6,5.98,2.1,8.67,2.1,3.25,0,5.16-1.35,6.69-1.41,1.53-.06-.61-1.29-3.68-1.35-3.07-.06-5.95-2.82-8.53-3.25-2.16-.36-3.82,.02-4.76,.79,.26,.61,.4,1.7,.48,2.84Z"/><path class="cls-8" d="M63.11,79.6c.94,.37,1.92,.64,2.92,.8,1.22,.19,2.48,.23,3.7,.11,.99-.1,1.96-.3,2.91-.6,1.04-.33,2.04-.79,2.98-1.34,.75-.44,1.44-.94,2.12-1.48,.33-.26,.66-.51,.97-.78,.31-.27,.61-.55,.91-.84,4.13-3.99,4.1-14.07,5.09-13.35,2.28,1.53,3.74-3.03,4.02-5.73,.24-2.26-.58-3.4-1.53-3.07-.4,1.22-1.01,.79-1.49,1.1-.63,.4-1.81-4.86-4.22-8.57-2.36,1.39-4.95,1.93-8,1.9-4.56-.06-8.92-2.26-12.67-4.19-.6,.51-1.18,1.08-1.69,1.75-3.85,4.99-7.03,8.81-8.03,9.61-.24,.19-.39-.39-.77-.91-.12-.07-.25-.17-.4-.33-.13-.13-.27-.23-.4-.3-.24-.08-.52-.1-.87-.03-.6,.32-1,1.38-.82,3.04,.28,2.71,1.74,7.26,4.02,5.73,1-.71,.96,9.37,5.09,13.35,.6,.58,1.23,1.11,1.88,1.62,.41,.32,.82,.64,1.25,.93,.94,.63,1.95,1.17,3.01,1.59Z"/><path d="M81.5,45.83c2.4,3.71,3.59,8.97,4.22,8.57,.48-.3,1.09,.13,1.49-1.1,.26-.78,.43-2.22,.43-4.96,0-2.5-.37-5.03-1.04-7.3-1.64,2.17-3.3,3.73-5.1,4.79Z"/><path d="M49.54,53.36c.36,.12,.61,.37,.8,.63,.38,.52,.53,1.1,.77,.91,1-.81,4.19-4.63,8.03-9.61,.52-.67,1.09-1.24,1.69-1.75-.7-.36-1.38-.72-2.04-1.04-4.16-2.08-6.91-2.65-8.53-2.62-.08,0-.14-.03-.19-.05-2.43,6.23-1.86,13.6-1.41,13.51h.02c.34-.07,.63-.05,.87,.03Z"/><path class="cls-7" d="M70.58,26.92c.88,.98,2.81,2.86,3.84,1.23,.37-.59,.6-1.96,.75-2.83,.31-1.75,.68-3.49,.97-5.24,.12-.71,.25-1.44,.34-2.16-.33-.48-.59-.78-.85-.95-.02,1.28-.34,1.87-.55,3.06-.2,1.15-.44,2.48-.66,3.63-.1,.52-.19,1.4-.28,1.92-.15,.83-.29,1.88-1.21,1.78-1.62-.17-4.33-4.31-5.31-5.48-1.31-1.58-2.73-3-4.38-4.23-.25,.23-.44,.46-.59,.67,3.24,2.33,5.31,5.69,7.93,8.59Z"/><path class="cls-7" d="M62.17,19.61v0Z"/><path class="cls-7" d="M61.97,20.82v0Z"/><path class="cls-7" d="M62.32,18.99v0Z"/><path class="cls-7" d="M62.23,19.31v0Z"/><path class="cls-7" d="M61.87,21.15s.02-.07,.03-.1c-.01,.03-.02,.07-.03,.1Z"/><path class="cls-7" d="M61.74,21.49s.03-.07,.05-.11c-.02,.04-.03,.07-.05,.11Z"/><path class="cls-7" d="M58.44,23.79c.14-.05,.28-.08,.43-.1-.14,.02-.28,.05-.43,.1Z"/><path class="cls-7" d="M57.27,24.9s.04-.08,.06-.11c-.02,.03-.04,.08-.06,.11Z"/><path class="cls-7" d="M57.43,24.62c.04-.06,.08-.12,.12-.17-.04,.05-.08,.11-.12,.17Z"/><path class="cls-7" d="M61.56,21.84s.04-.07,.06-.11c-.02,.04-.04,.07-.06,.11Z"/><path class="cls-7" d="M61.33,22.2s.04-.06,.06-.09c-.02,.03-.04,.06-.06,.09Z"/><path class="cls-7" d="M61.07,22.55l.03-.03-.03,.03Z"/><path class="cls-7" d="M64.92,33.42c2.04,1.98,5.93,5.45,9.07,5.33,2.63-.1,3.77-2.61,4.68-4.64,1.23-2.74,2.22-5.5,3.03-8.34-.47-2.78-1.06-.61-1.06-.2-.4,1.53-.72,2.61-1.38,4.47-1.44,4.02-3.21,9.5-7.76,7.16-5.55-2.86-9.44-8.63-13.06-13.41-.3,.1-.59,.29-.86,.63,2.33,3.08,4.55,6.3,7.35,9.01Z"/><path class="cls-7" d="M58.79,42.49c.66,.33,1.34,.68,2.04,1.04,3.75,1.94,8.11,4.14,12.67,4.19,3.05,.04,5.64-.5,8-1.9,1.8-1.06,3.46-2.62,5.1-4.79,.02-.03,.05-.06,.07-.09,.03-.03,.04-.1,.03-.19,0,.09,0,.15-.03,.18-3.82,5.1-7.77,6.85-13.18,6.78-5.41-.07-10.54-3.16-14.7-5.24-4.16-2.08-6.91-2.65-8.53-2.62-.23,0-.35-.1-.38-.29,.01,.13,.08,.2,.18,.25,.06,.03,.11,.05,.19,.05,1.62-.03,4.37,.54,8.53,2.62Z"/><path class="cls-5" d="M67.62,21.88c.98,1.17,3.69,5.31,5.31,5.48,.92,.1,1.06-.95,1.21-1.78,.1-.52,.19-1.4,.28-1.92,.21-1.15,.45-2.48,.66-3.63,.21-1.19,.53-1.78,.55-3.06h0c-.38-.4-1.08-.09-1.43,.07-1.32,.6-3.4,2.35-4.23,1.75-.77-.56-4.73-3.06-6.73-1.13,1.65,1.23,3.07,2.66,4.38,4.23Z"/><path class="cls-6" d="M71.5,37.2c4.55,2.34,6.33-3.13,7.76-7.16,.66-1.86,.98-2.94,1.38-4.47-.53-1.01-2.01-4-3.19-6.05-.39-.67-.71-1.2-.98-1.61h0c-.09,.73-.21,1.46-.34,2.17-.3,1.75-.66,3.49-.97,5.24-.15,.87-.38,2.24-.75,2.83-1.03,1.63-2.96-.25-3.84-1.23-2.62-2.91-4.68-6.26-7.93-8.59h0c-.14,.21-.24,.42-.31,.62v.04c-.04,.08-.07,.17-.09,.25v.06c-.03,.08-.05,.16-.06,.24v.06c-.07,.37-.1,.76-.2,1.17v.04c-.03,.07-.05,.15-.07,.22-.01,.03-.02,.07-.03,.1-.03,.07-.06,.15-.09,.23-.02,.04-.03,.07-.05,.11-.04,.08-.08,.16-.12,.25-.02,.04-.04,.07-.06,.11-.05,.09-.1,.18-.17,.27-.02,.03-.04,.06-.06,.09-.07,.1-.15,.21-.23,.31l-.03,.03c-.2,.25-.45,.52-.75,.8-.25,.27-.86,.22-1.45,.33-.14,.03-.29,.05-.43,.1h0c3.63,4.77,7.51,10.55,13.06,13.41Z"/><path class="cls-5" d="M50.26,39.86c1.62-.03,4.37,.54,8.53,2.62,4.16,2.08,9.29,5.17,14.7,5.24,5.41,.07,9.36-1.68,13.18-6.78,.03-.03,.04-.1,.03-.18-.12-1.35-4.36-8.91-4.82-13.51-.06-.6-.12-1.08-.19-1.47h0c-.8,2.84-1.8,5.6-3.03,8.34-.91,2.04-2.06,4.54-4.68,4.64-3.14,.12-7.03-3.35-9.07-5.33-2.8-2.71-5.02-5.93-7.35-9.01h0s-.02,.02-.02,.03c-.04,.05-.08,.11-.12,.17-.04,.05-.07,.1-.11,.16-.02,.03-.04,.08-.06,.11-.05,.09-.09,.17-.14,.27-.97,2.22-.76,4.7-1.94,6.18-1.03,1.29-5.47,6.88-5.3,8.23,.02,.19,.14,.3,.38,.29Z"/><path class="cls-5" d="M76.93,79.96c-.18,.11-.35,.29-.53,.51-1.1,1.34-2.12,4.47-2.75,7.47-.41,1.94-.66,3.82-.66,5.1,0,3.56-.61,5.04,0,6.14,.61,1.1,5.52,4.11,5.52,5.28s6.69-8.35,5.89-10.68c-.78-2.29-4.7-5.35-4.8-7.09,0-.03-.01-.06-.01-.09,.01-.74,.01-2.04-.07-3.3-.07-1.14-.21-2.23-.48-2.84-.12-.28-.27-.46-.45-.49-.24-.03-.46-.04-.66-.05-.63-.02-1.02,.05-1.02,.05Z"/><path class="cls-6" d="M108.16,99.94v0h0Z"/><path class="cls-6" d="M107.86,99.42c.08,.11,.15,.23,.22,.36-.07-.15-.15-.3-.23-.42-.67-.92-16.77-6.4-19.27-7.4-.05-.02-.08-.03-.12-.05,.84,.71,1.75,1.63,2.42,2.82,1.91,3.41,2.01,5.51,3.36,6.51,1.35,1-10.51,1.78-10.51,1.78l7.47,5.64s-8.37,9.57-14.03,13.7c-1.75,1.28-3.48,3.64-4.92,5.26-1.63,1.83-1.87,2.88-3.15,5.01,.15,.67,.29,1.31,.39,1.81,10.7-.35,20.78-3.18,29.65-7.97,.26-10.37,1.51-19.47,8.73-27.06h0Z"/><path class="cls-5" d="M68.3,129.16c0-.05,.02-.11,.03-.16-.03-.14-.07-.29-.12-.44,.04,.21,.07,.41,.09,.61Z"/><path class="cls-5" d="M69.02,132.74c-1.58-1.38-2.99-3.26-4.66-5.13-1.44-1.62-3.17-3.98-4.92-5.26-5.66-4.13-14.03-13.7-14.03-13.7l7.47-5.64s-11.86-.78-10.51-1.78c1.35-1,1.45-3.1,3.36-6.51,.6-1.07,1.4-1.92,2.16-2.6-3.56,1.34-18.18,6.35-18.81,7.22-.02,.02-.03,.05-.05,.08,7.49,7.88,8.53,17.4,8.73,28.26,8.9,4.35,18.91,6.8,29.49,6.8,.75,0,1.48-.03,2.22-.06-.1-.5-.24-1.14-.39-1.81-.02,.04-.04,.07-.07,.11Z"/><path class="cls-4" d="M29,99.41h0c-.67,.92-.92,2.59-1.58,4.67-.25,.8-1.95,5.66-3.88,14.25,4.31,3.69,9.08,6.85,14.23,9.37-.2-10.86-1.25-20.37-8.73-28.26l-.02-.03Z"/><path class="cls-4" d="M109.44,104.08c-.56-1.74-.82-3.17-1.28-4.14v-.03s-.05-.09-.08-.13c-.07-.13-.14-.25-.22-.36h0c-7.23,7.59-8.47,16.69-8.73,27.06,5.02-2.71,9.65-6.04,13.8-9.89-1.76-7.51-3.25-11.77-3.48-12.51Z"/><path class="cls-4" d="M45.72,94.73c-1.91,3.41-2.01,5.51-3.36,6.51-1.35,1,10.51,1.78,10.51,1.78l-7.47,5.64s8.37,9.57,14.03,13.7c1.75,1.28,3.48,3.64,4.92,5.26,1.66,1.86,3.08,3.75,4.66,5.13,.02-.04,.04-.07,.07-.11,1.28-2.13,1.52-3.18,3.15-5.01,1.44-1.62,3.17-3.98,4.92-5.26,5.66-4.13,14.03-13.7,14.03-13.7l-7.47-5.64s11.86-.78,10.51-1.78c-1.35-1-1.45-3.1-3.36-6.51-.66-1.19-1.58-2.11-2.42-2.82-.78-.66-1.5-1.14-1.9-1.49-1.66-1.41-2.61-1.03-2.61-1.03,0,0,.16,.07,.38,.26,.32,.29,.75,.88,.94,2,.11,.68,1.03,2.78-2.75,8.13-3.26,4.62-13.24,22.32-14.18,29.2,0,.05-.02,.11-.03,.16-.02-.19-.06-.4-.09-.61-1.29-7.17-10.93-24.24-14.12-28.76-3.77-5.35-2.86-7.45-2.75-8.13,.19-1.13,.62-1.71,.94-2,.22-.2,.38-.27,.38-.27,0,0-.96-.37-2.61,1.03-.45,.38-1.28,.94-2.16,1.71-.77,.68-1.57,1.53-2.16,2.6Z"/></g></g></svg>