<?xml version="1.0" encoding="UTF-8"?><svg id="_이어_2" xmlns="http://www.w3.org/2000/svg" viewBox="0 0 134.49 134.49"><defs><style>.cls-1{fill:#f2f2f2;}.cls-2{fill:#7c7b43;}.cls-3{fill:#989b70;}.cls-4{fill:#8c8b52;}.cls-5{fill:#d1a385;}.cls-6{fill:#c69a81;}.cls-7,.cls-8{fill:#5c5f32;}.cls-9{fill:#56563c;}.cls-10{fill:#3a3a3a;}.cls-11{fill:#827f4a;}.cls-12{fill:#4c4b37;}.cls-8{opacity:.3;}</style></defs><g id="Object"><circle class="cls-1" cx="67.25" cy="67.25" r="67.25"/><g><path class="cls-3" d="M16.96,98.78c-.03,.05-.07,.1-.1,.15,.03-.05,.07-.09,.1-.14h0Z"/><path class="cls-3" d="M15.65,100.86h0c.4-.67,.79-1.31,1.18-1.9-.41,.61-.83,1.19-1.18,1.9Z"/><path class="cls-7" d="M30.39,119.02c0-.06,0-.15,0-.23-.05-.92-.1-1.82-.15-2.67h0c-.04-.81-.08-1.59-.12-2.32-.07-1.42-.25-2.77-.5-4.06-.2-.76-.24-1.12-.37-1.68-.36-1.42-.8-2.73-1.29-3.95v-.02c-2.06-5.12-4.85-8.4-5.32-9.1-.1-.15,0-.32,.26-.49-.3-.02-.61-.02-.96,.03-1.67,.24-3.3,1.77-4.99,4.27,0,.71,.12,1.36,.76,1.81,2.13,1.51,3.61,2.79,4.55,4.01,.94,1.22,1.97-1.52,3.85,.91,1.88,2.43-1.26,4.7-4.48,6.13-1.15,.51-1.63,1.68-2.11,2.97,1.23,1.24,2.52,2.42,3.84,3.56,.07-1.76-.67-2.82,1.44,.3,1.77-1.08,3.96-3.15,5-1.8,.94,1.21-1.82,1.96-4.09,3.18,.11,.18,.22,.35,.32,.51,1.5,1.17,3.06,2.27,4.66,3.31l-.02-.31c-.1-1.45-.18-2.89-.27-4.34Z"/><path class="cls-8" d="M30.39,119.02c0-.06,0-.15,0-.23-.05-.92-.1-1.82-.15-2.67h0c-.04-.81-.08-1.59-.12-2.32-.07-1.42-.25-2.77-.5-4.06-.2-.76-.24-1.12-.37-1.68-.36-1.42-.8-2.73-1.29-3.95v-.02c-2.06-5.12-4.85-8.4-5.32-9.1-.1-.15,0-.32,.26-.49-.3-.02-.61-.02-.96,.03-1.67,.24-3.3,1.77-4.99,4.27,0,.71,.12,1.36,.76,1.81,2.13,1.51,3.61,2.79,4.55,4.01,.94,1.22,1.97-1.52,3.85,.91,1.88,2.43-1.26,4.7-4.48,6.13-1.15,.51-1.63,1.68-2.11,2.97,1.23,1.24,2.52,2.42,3.84,3.56,.07-1.76-.67-2.82,1.44,.3,1.77-1.08,3.96-3.15,5-1.8,.94,1.21-1.82,1.96-4.09,3.18,.11,.18,.22,.35,.32,.51,1.5,1.17,3.06,2.27,4.66,3.31l-.02-.31c-.1-1.45-.18-2.89-.27-4.34Z"/><path class="cls-7" d="M15.31,102.36c.27-.68,.3-1.05,.34-1.49-.96,1.64-1.94,3.54-2.97,5.66,.03,.04,.05,.08,.08,.12,.44-.72,.9-1.44,1.56-2.61,.29-.51,.7-1.16,.99-1.67Z"/><path class="cls-8" d="M15.31,102.36c.27-.68,.3-1.05,.34-1.49-.96,1.64-1.94,3.54-2.97,5.66,.03,.04,.05,.08,.08,.12,.44-.72,.9-1.44,1.56-2.61,.29-.51,.7-1.16,.99-1.67Z"/><path class="cls-2" d="M23.35,118.17c.26,.22,.51,.45,.77,.66,.22-.1,.44-.22,.68-.36-2.12-3.12-1.38-2.06-1.44-.3Z"/><path class="cls-8" d="M23.35,118.17c.26,.22,.51,.45,.77,.66,.22-.1,.44-.22,.68-.36-2.12-3.12-1.38-2.06-1.44-.3Z"/><path class="cls-2" d="M25.51,119.95c.17,.14,.34,.27,.52,.4-.1-.16-.2-.33-.32-.51-.07,.04-.13,.07-.2,.11Z"/><path class="cls-8" d="M25.51,119.95c.17,.14,.34,.27,.52,.4-.1-.16-.2-.33-.32-.51-.07,.04-.13,.07-.2,.11Z"/><path class="cls-12" d="M29.8,116.67c-1.04-1.35-3.23,.71-5,1.8-.23,.14-.46,.26-.68,.36,.46,.38,.92,.75,1.39,1.12,.07-.04,.13-.07,.2-.11,2.27-1.22,5.03-1.96,4.09-3.18Z"/><path class="cls-8" d="M29.8,116.67c-1.04-1.35-3.23,.71-5,1.8-.23,.14-.46,.26-.68,.36,.46,.38,.92,.75,1.39,1.12,.07-.04,.13-.07,.2-.11,2.27-1.22,5.03-1.96,4.09-3.18Z"/><path class="cls-3" d="M21.63,111.64c3.23-1.43,6.36-3.7,4.48-6.13-1.88-2.43-2.91,.31-3.85-.91-.94-1.22-2.41-2.5-4.55-4.01-.64-.45-.76-1.11-.76-1.81-.03,.05-.07,.09-.1,.14l-.02,.04c-.39,.58-.78,1.22-1.18,1.9-.04,.45-.08,.82-.34,1.49-.28,.51-.7,1.17-.99,1.67-.66,1.17-1.12,1.89-1.56,2.61,2.05,2.82,4.3,5.49,6.75,7.96,.48-1.29,.96-2.46,2.11-2.97Z"/><path class="cls-8" d="M21.63,111.64c3.23-1.43,6.36-3.7,4.48-6.13-1.88-2.43-2.91,.31-3.85-.91-.94-1.22-2.41-2.5-4.55-4.01-.64-.45-.76-1.11-.76-1.81-.03,.05-.07,.09-.1,.14l-.02,.04c-.39,.58-.78,1.22-1.18,1.9-.04,.45-.08,.82-.34,1.49-.28,.51-.7,1.17-.99,1.67-.66,1.17-1.12,1.89-1.56,2.61,2.05,2.82,4.3,5.49,6.75,7.96,.48-1.29,.96-2.46,2.11-2.97Z"/><path class="cls-3" d="M118.01,98.78h0c.03,.05,.07,.1,.1,.15-.03-.05-.07-.1-.1-.15Z"/><path class="cls-3" d="M119.31,100.86c-.35-.7-.77-1.29-1.18-1.9,.39,.58,.78,1.22,1.18,1.9h0Z"/><path class="cls-7" d="M113.34,111.64c-3.23-1.43-6.36-3.7-4.48-6.13,1.88-2.43,2.91,.31,3.85-.91,.94-1.22,2.41-2.5,4.55-4.01,.64-.45,.76-1.11,.76-1.81-1.68-2.47-3.3-4-4.96-4.26,.22,.16,.3,.3,.2,.45-.34,.51-1.92,2.39-3.54,5.35,0,.01,.02,.02,.03,.03-.11,.09-.33,.58-.42,.74-.21,.39-.4,.75-.58,1.11-1.45,3.08-2.75,7.01-2.98,11.59-.04,.8-.09,1.65-.13,2.53,1.14-.47,3,1.21,4.54,2.15,1.95-2.87,1.48-2.2,1.44-.7,1.28-1.12,2.52-2.29,3.71-3.51-.44-1.15-.93-2.15-1.98-2.62Z"/><path class="cls-8" d="M113.34,111.64c-3.23-1.43-6.36-3.7-4.48-6.13,1.88-2.43,2.91,.31,3.85-.91,.94-1.22,2.41-2.5,4.55-4.01,.64-.45,.76-1.11,.76-1.81-1.68-2.47-3.3-4-4.96-4.26,.22,.16,.3,.3,.2,.45-.34,.51-1.92,2.39-3.54,5.35,0,.01,.02,.02,.03,.03-.11,.09-.33,.58-.42,.74-.21,.39-.4,.75-.58,1.11-1.45,3.08-2.75,7.01-2.98,11.59-.04,.8-.09,1.65-.13,2.53,1.14-.47,3,1.21,4.54,2.15,1.95-2.87,1.48-2.2,1.44-.7,1.28-1.12,2.52-2.29,3.71-3.51-.44-1.15-.93-2.15-1.98-2.62Z"/><path class="cls-7" d="M105.27,122.71c1.34-.92,2.64-1.89,3.91-2.9-1.35-.72-2.85-1.27-3.64-1.86-.08,1.5-.17,3.09-.27,4.76Z"/><path class="cls-8" d="M105.27,122.71c1.34-.92,2.64-1.89,3.91-2.9-1.35-.72-2.85-1.27-3.64-1.86-.08,1.5-.17,3.09-.27,4.76Z"/><path class="cls-7" d="M119.31,100.87c.04,.45,.08,.82,.34,1.49,.28,.51,.7,1.17,.99,1.67,.55,.98,.97,1.64,1.34,2.26,.04-.05,.07-.1,.11-.15-.96-1.96-1.88-3.73-2.78-5.27Z"/><path class="cls-8" d="M119.31,100.87c.04,.45,.08,.82,.34,1.49,.28,.51,.7,1.17,.99,1.67,.55,.98,.97,1.64,1.34,2.26,.04-.05,.07-.1,.11-.15-.96-1.96-1.88-3.73-2.78-5.27Z"/><path class="cls-2" d="M110.17,118.47c.13,.08,.25,.15,.38,.22,.36-.3,.71-.61,1.06-.92,.04-1.5,.51-2.16-1.44,.7Z"/><path class="cls-8" d="M110.17,118.47c.13,.08,.25,.15,.38,.22,.36-.3,.71-.61,1.06-.92,.04-1.5,.51-2.16-1.44,.7Z"/><path class="cls-12" d="M105.63,116.32c-.03,.53-.06,1.07-.09,1.63,.79,.59,2.28,1.14,3.64,1.86,.46-.37,.92-.74,1.37-1.12-.12-.07-.25-.14-.38-.22-1.54-.94-3.4-2.61-4.54-2.15Z"/><path class="cls-8" d="M105.63,116.32c-.03,.53-.06,1.07-.09,1.63,.79,.59,2.28,1.14,3.64,1.86,.46-.37,.92-.74,1.37-1.12-.12-.07-.25-.14-.38-.22-1.54-.94-3.4-2.61-4.54-2.15Z"/><path class="cls-3" d="M119.65,102.36c-.27-.68-.3-1.05-.34-1.49-.4-.68-.79-1.32-1.18-1.9l-.02-.04s-.07-.09-.1-.14c0,.71-.12,1.36-.76,1.81-2.13,1.51-3.61,2.79-4.55,4.01-.94,1.22-1.97-1.52-3.85,.91-1.88,2.43,1.26,4.7,4.48,6.13,1.05,.46,1.54,1.47,1.98,2.62,2.42-2.48,4.65-5.14,6.66-7.96-.38-.61-.79-1.28-1.34-2.26-.29-.51-.7-1.16-.99-1.67Z"/><path class="cls-8" d="M119.65,102.36c-.27-.68-.3-1.05-.34-1.49-.4-.68-.79-1.32-1.18-1.9l-.02-.04s-.07-.09-.1-.14c0,.71-.12,1.36-.76,1.81-2.13,1.51-3.61,2.79-4.55,4.01-.94,1.22-1.97-1.52-3.85,.91-1.88,2.43,1.26,4.7,4.48,6.13,1.05,.46,1.54,1.47,1.98,2.62,2.42-2.48,4.65-5.14,6.66-7.96-.38-.61-.79-1.28-1.34-2.26-.29-.51-.7-1.16-.99-1.67Z"/><path class="cls-6" d="M55.18,80.76s-.97,4.84,2.09,9.09c1.68,2.33,6.96,8.05,10.68,12.03,3.72-3.98,9-9.7,10.68-12.03,3.06-4.26,2.09-9.09,2.09-9.09l-.42-1.44c-.11-.32-.2-.65-.28-.97h0c-.33-1.28-.47-2.51-.53-3.59-.17,.16-.33,.32-.51,.47-1.01,.88-2.08,1.69-3.24,2.37-.99,.58-2.03,1.06-3.12,1.41-.99,.32-2.01,.53-3.04,.63-1.28,.13-2.6,.09-3.88-.11-1.05-.17-2.07-.45-3.06-.83-1.11-.44-2.16-1-3.15-1.66-1.11-.74-2.14-1.6-3.1-2.52-.05,1.15-.19,2.47-.55,3.85l.06-.02-.71,2.41Z"/><path class="cls-5" d="M62.63,78.69c.99,.39,2.01,.67,3.06,.83,1.27,.2,2.59,.24,3.88,.11,1.03-.1,2.06-.31,3.04-.63,1.09-.35,2.13-.83,3.12-1.41,1.16-.68,2.23-1.48,3.24-2.37,.17-.15,.34-.31,.51-.47,.15-.14,.3-.27,.45-.41,4.32-4.18,4.29-14.73,5.33-13.98,2.39,1.6,3.91-3.17,4.21-6,.25-2.35-.6-3.54-1.58-3.21-.2,1.02-1.78,.61-2.4,1.63-.45,.73-.44-1.4-.72-3.18-.63-.28-1.35-.74-2.16-1.44-2.37-2.06-4.66-3.43-6.69-4.34-3.49,.02-8.23-.1-12.67-1.06-2.6,.75-5.99,2.28-9.58,5.4-1.02,.89-1.89,1.39-2.64,1.62-.16,1.84,.09,3.44-.54,2.88-.36-.32-.73-.54-1.06-.71-.05-.02-.1-.04-.15-.07-.49-.24-.9-.42-1.1-.75-.95-.26-1.76,.93-1.52,3.23,.3,2.83,1.83,7.61,4.21,6,1.04-.75,1.01,9.8,5.33,13.98,.06,.05,.12,.1,.18,.16,.97,.92,1.99,1.78,3.1,2.52,.99,.66,2.04,1.23,3.15,1.66Z"/><path class="cls-10" d="M84.77,49.61c.28,1.77,.28,3.91,.72,3.18,.62-1.02,2.19-.61,2.4-1.63,0-.01,0-.02,.01-.03,.08-.47,1-2.72,1.46-5.92-.45,2.84-1.62,5.71-4.59,4.4Z"/><path class="cls-10" d="M89.6,40.58c-.05-1.05-.17-2.14-.4-3.26,.04,1.21,.06,2.25,.08,3.03,.11,.09,.23,.17,.32,.23Z"/><path class="cls-10" d="M47.11,35.14c-.36,1.77-.47,3.64-.45,5.46,.08-.05,.17-.12,.26-.19,.03-1.22,.04-3.12,.18-5.27Z"/><path class="cls-10" d="M49.27,51.89c.05,.03,.1,.06,.15,.07,.34,.17,.7,.39,1.06,.71,.63,.56,.38-1.03,.54-2.88-2.22,.68-3.32-1.15-3.87-3.36,.41,2.67,.92,4.55,.99,4.68,0,.01,.02,.02,.02,.03,.2,.33,.6,.51,1.1,.75Z"/><path class="cls-10" d="M68.14,42.07s-1.93-.15-4.89,.71c4.44,.96,9.18,1.08,12.67,1.06-4.54-2.04-7.78-1.77-7.78-1.77Z"/><path class="cls-4" d="M55.83,127.22l.08,.03c.22-.02,.45-.04,.69-.05-.2-.13-.46-.14-.77,.02Z"/><path class="cls-4" d="M37.65,89.77c.71-.28,1.68-.63,2.36-.93-.78,.3-1.57,.61-2.36,.93Z"/><path class="cls-4" d="M29.48,94.87c.15-.82,.61-2.19,1.16-2.78,.47-.11,1-.29,1.46-.42,.3,.49,1.32,1.17,1.78,1.85,.47-1.08,1.03-2.16,1.18-2.77h.04c-2.55,.86-5.44,1.61-7.8,2.25-.33,2.06,1.9,3.42,2.18,1.87Z"/><path class="cls-4" d="M43.42,127.19c-.38-1.73-4.61,.19-6.14-1.34-1.54-1.54,.38-2.11,0-3.26,0,0,.34-.11,.87-.21-.35-.76-.81-1.68-1.64-2.83-2.75-3.8-1.1-8.84,.56-5.54,.56,1.11,1.52,1.42,2.64,1.4-.1-.49-.26-.94-.73-1.24,0,0,1.93-3.02,4.84-3.92,2.92-.9,3.03-3.91,7.45-3.85,.67,0,1.11,.18,1.4,.46,1.52,.35,3.27,.76,4.59,.41,2.88-.77,2.3-4.03,.77-3.07-1.2,.75-3.2,.68-3.76,.34-1.52,.77-2.78,1.65-4.02,1.83-.97,.15-1.24-2.82-1.15-6.71-2.19,.74-1.02,3.87-3.73,3.87-1.53,0-1.06-.38-.3-1.07-.19-.06-.39-.21-.58-.47-1.57-2.11,.06-2.9-1.57-2.11-1.97,.95-5.76,1.73-4.22-1.73,.69-1.55,.2-3.65-.34-5.48-.99,1.06-3.58,.27-2.63,2.93,.35,.97,.51,1.54,.45,1.97,.07,.1,.14,.19,.21,.32,1.5,3,6.56,4.85,4.33,6.26-2.22,1.41-2.89-.28-2.22,1.41,.8,2.04,1.28,5.87-2.04,4.08-1.94-1.04-4.84-.21-6.8,.19-.01-.04-.02-.07-.03-.1,.25,1.29,.43,2.64,.5,4.06,.04,.73,.08,1.51,.12,2.32,.88-.46,2-.4,2.71,.1,1.94,1.37,3.97,3.12,.88,5.84,.33,.75,.61,1.57,.84,2.4,.59,2.11,3.43,2.49,5.24,4.24,.95,.42,1.92,.83,2.9,1.21,.34-.94,.77-1.94,.6-2.71Z"/><path class="cls-4" d="M50.98,116.03c.24,.04,.48,.08,.72,.12-.18-.5-.37-.98-.6-1.4-.02,.41-.06,.84-.12,1.28Z"/><path class="cls-4" d="M37.57,89.8c-.06,.03-.13,.05-.19,.08,.09,.13,.19,.28,.29,.43-.04-.18-.08-.35-.1-.5Z"/><path class="cls-4" d="M28.96,106.95c1.41-.89,3.35-2.07,2.98-3.82-.12-.57-.11-1.19,0-1.8-1.36,1.15-2.81,2.37-3.88,2.95-.03-.04-.05-.11-.08-.19,.49,1.22,.93,2.53,1.29,3.95-.04-.16-.08-.33-.14-.53,0-.02-.15-.54-.16-.56Z"/><path class="cls-4" d="M22.65,94.97c.47,.7,3.26,3.98,5.31,9.1-.1-.27-.21-.69-.31-.78-.31-.71-.38-.95-.75-1.63,1.13-1.41,5.74-4.28,6.3-6.05-.44,.24-1.01,.54-1.71,1.05-2.23,1.61-3.03,2.25-5.6,.38-2.66-1.94-.14-3.52,1.04-3.95-1.9,.52-3.4,.98-4.01,1.38-.26,.17-.37,.33-.26,.49Z"/><path class="cls-4" d="M30.4,118.79c0-.76-.1-2.39-.15-2.67,.05,.85,.1,1.75,.15,2.67Z"/><path class="cls-4" d="M30.66,123.41v-.05l.02,.31h0c0-.08,0-.17-.01-.26h0Z"/><path class="cls-4" d="M44.84,93.17c.13-.04,.27-.06,.41-.08-.5-.73-2.37,.06-2.37-2.6,0-3.02,3.75-2.95,7.14-2.15,.21-1.68,.44-3.13,.65-4.16-2.55,1.61-6.49,3.06-10.65,4.66,1.31,1.37,2.45,5.03,4.82,4.33Z"/><path class="cls-4" d="M62.65,109.77c-.18-.08-.38-.26-.59-.6-1.34-2.11-4.61,.77-6.33,0-.62-.27-1.6-.33-2.61-.38-.18,1.9-1.14,3.99,1.44,2.54,4.26-2.4,7.78,2.85,5.36,4.81s-1.27,2.49-4.62,3.75c-1.29,.49-2.03-.08-2.56-1.05-.6-.22-1.33-.36-2.24-.29-.13,.56-.28,1.12-.44,1.67,1.21,.72,.97,4.34,.21,4.96-.93,.76-2.03,.08-2.79,1.27-.57,.9-.98,1.16-1.54,1.07,.16,.08,.39,.16,.75,.22,.83,.14,1.43,.53,1.82,1.02,.71-.25,1.66-.58,2.88-1.19,.16-.08,.3-.15,.45-.21,.01-.03,.03-.06,.06-.09,.58-.58-.43-1.83,0-2.69,.77-1.54,1.15-.58,3.84,0,2.23,.48,2.08,1.22,3.17,2.81,.52,.09,1.04,.19,1.56,.32,1.29,.31,2.43-.4,3.66-1.17v-6.57c-.11-.15-.2-.32-.26-.51-.48-1.57-.89-3.31,.26-4.33v-5.01c-.56,.04-1.06-.06-1.46-.35Z"/><path class="cls-4" d="M63.27,107.77c.26-.08,.55-.19,.85-.33v-1.38h0l.05-.06s-.08,.04-.11,.06c.02-.04,.59-.66,1.51-1.64-2.25-.45-4.23-.81-4.23-.81-.23-.06-.44-.1-.66-.14,.3,.51,.68,1.14,1.38,1.93,.66,.75,1.04,1.61,1.21,2.37Z"/><path class="cls-11" d="M91.78,128.53c-.43,.13-.87,.25-1.31,.33-1.56,.29-2.03,1.18-1.73,2.11,.97-.33,1.92-.67,2.87-1.04,.1-.56,.23-1.09,.18-1.4Z"/><path class="cls-11" d="M105.63,116.32c.05-.88,.09-1.73,.13-2.53,.23-4.59,1.53-8.51,2.98-11.59-.32,.65-.61,1.31-.92,2.13-2,2.15-2.54,5.13-3.84,3.39-.6-.81-.73-1.42-.76-1.83-.75,.64-2.22,1.21-3.66,1.48-3.07,.58-1.92,3.45,.96,4.41,2.88,.96,3.84,3.07,0,5.56-3.84,2.49-4.03,0-7.68,0s-1.73,4.03-4.8,4.03c-2.55,0,.46-1.06,1.11-2.85-.95,.16-2.19-.3-3.89-1.89-1.4-1.31-1.12-5.49-2.3-4.99-.81,.34-1.23,1.47-2.28,1.11,1.82,1.6,3.68,2.76,2.17,3.72-2.22,1.41-2.89-.28-2.22,1.41,.8,2.04,1.28,5.87-2.04,4.08-3.33-1.79-8.6,1.76-9.21-.36-.1-.36,0-.67,.2-.97-1.93,.43-3.69,.51-4.76-.06v5.53c1.32-.78,2.78-1.44,4.65-.9,4.03,1.15,.77,3.07-2.3,3.65-2.59,.49-2.17,2.61-.24,3.84,1.5-4.07,3.16-2.32,6.01-4.51,2.89-2.23-1.09-4.25,1.34-6.12,2.43-1.88-.58,2.39,1.55,3.89,.79,.56,1.49,1.09,2.11,1.59,.31-.13,.66-.22,1.04-.28-.54-1.81-.49-3.32,.69-3.97,2.28-1.27,5.03-2.45,5.94,3.06,.05,.29,.02,.61-.05,.95,.33-.22,.67-.43,.98-.6-.1-.57,.05-1.14,.53-1.51,1.67-1.29,.9-1.66,3.19-2.46,1.51-.53,1.87,1,2.32,2.42,.07,.02,.13,.02,.2,.04,1.92,.55,2.18,1.27,1.59,1.94,1.33-.38,3.1-3.07,4.86-2.84,1.17,.15,1.36,.7,1.45,1.28,1.57-.9,3.11-1.86,4.6-2.88,.1-1.67,.19-3.26,.27-4.76,.03-.56,.06-1.1,.09-1.63Z"/><path class="cls-11" d="M85.8,107.19c.61-1.29,2.34-1.61,4.33-1.44-.52-.43-1.03-.93-1.49-1.47-.68-.8-1.34-1.06-1.91-.93-.13,1.91-.47,3.11-1.09,3.02-.16-.02-.31-.06-.47-.11,0,.3,.03,.62,.09,.94,.18,0,.37,0,.55,0Z"/><path class="cls-11" d="M92.94,104.5c.19,.81,.21,1.37,.12,1.75,1.72,.27,3.2-1.21,5.03-2.1,.03-.09,.06-.17,.1-.27,.9-2.02-.07-4.56-.63-6.48-.16,.06-.31,.13-.47,.19-4.03,1.54-8.83,2.49-9.59,0-.77-2.49-1.36-5.43,4.22-5.18,1.92,.08,4.41,3.45,4.99,2.3,.58-1.15-.58-3.07,3.65-2.3,3.08,.56,2.07,2.24-.26,3.71,1.09,1.45,2.28,3.35,4.23,2.77,1.98-.58,4.22,.18,5.38,1.43,1.62-2.95,3.2-4.84,3.54-5.35,.09-.14,.01-.29-.2-.45-1.44-1.04-9.11-2.45-14.12-4.49-5.21-2.12-10.54-3.86-13.7-5.86,.59,2.93,1.34,9.34,1.53,14.53,1.42,1.98,5.32,2.17,6.19,5.79Z"/><path class="cls-11" d="M66.24,105.63c.09-.12,.17-.24,.24-.36-.65,.16-1.23,.32-1.67,.46v1.3c.48-.33,.96-.77,1.42-1.41Z"/><path class="cls-11" d="M68.08,114.27c1.92,.08,4.41,3.45,4.99,2.3,.38-.76,.02-1.85,.93-2.28,.15-2.72,2.4-5.75,3.88-4.83-.04-.42,.16-.71,.52-.9-1.25-1.45-.4-2.83-1.75-5.23,0-.01-.01-.02-.02-.03-.61,.03-1.26,.12-1.95,.29-.63,1.41-1.29,2.74-2.36,3.03-1.88,.51-5.07,2.85-7.49,3.39v4.68c.72-.32,1.77-.49,3.26-.42Z"/><path class="cls-3" d="M48.5,128.77c-.39-.49-.98-.88-1.82-1.02-.36-.06-.59-.14-.75-.22-.24-.04-.52-.14-.85-.29-.17,0-.34-.04-.51-.09-1.07-.32-2.19-.71-2.96-1.34-2.47-.85-2.69-1.74-3.47-3.43-.53,.1-.87,.21-.87,.21,.38,1.15-1.54,1.73,0,3.26,1.53,1.54,5.76-.38,6.14,1.34,.17,.77-.27,1.77-.6,2.71,1.37,.54,2.77,1.04,4.18,1.49,0-.08,0-.16-.02-.25-.36-1.64,.11-1.87,1.52-2.37Z"/><path class="cls-12" d="M58.03,104.19c1.54-.96,2.11,2.3-.77,3.07-1.32,.35-3.07-.06-4.59-.41,.47,.45,.52,1.18,.45,1.95,1.01,.05,1.99,.11,2.61,.38,1.73,.77,4.99-2.11,6.33,0,.22,.34,.42,.52,.59,.6,.41,.29,.91,.38,1.46,.35v-2.67c-.3,.14-.58,.25-.85,.33-.17-.76-.54-1.62-1.21-2.37-.7-.79-1.08-1.41-1.38-1.93-2.68-.53-4.71,.19-6.41,1.05,.56,.34,2.56,.41,3.76-.34Z"/><path class="cls-12" d="M38.38,92.66l-.02,.02c.54,1.83,1.03,3.93,.34,5.48-1.53,3.45,2.25,2.68,4.22,1.73,1.63-.79,0,0,1.57,2.11,.19,.26,.39,.41,.58,.47,.77-.7,1.84-1.71,1.45-2.96-.77-2.49-1.15-4.41-1.15-5.95,0-.21-.05-.35-.13-.47-.14,.03-.28,.05-.41,.08-2.38,.7-3.52-2.96-4.82-4.33h-.01c-.68,.3-1.65,.65-2.36,.93-.02,0-.05,.02-.08,.03h0c.02,.16,.06,.33,.1,.5,.56,.82,1.18,1.83,.7,2.37Z"/><path class="cls-12" d="M104.33,98.89c-1.95,.57-3.15-1.32-4.23-2.77-.74,.47-1.61,.91-2.53,1.29,.55,1.92,1.52,4.46,.63,6.48-.04,.1-.07,.18-.1,.27,1.09-.53,2.31-.84,3.78-.42,2.14,.61,2.21,1.44,1.36,2.17,.03,.41,.16,1.02,.76,1.83,1.3,1.74,1.84-1.24,3.84-3.39,.31-.83,.6-1.48,.92-2.13,.18-.36,.37-.73,.58-1.11,.08-.15,.3-.65,.42-.74,0-.01-.02-.02-.03-.03-1.15-1.24-3.39-2.01-5.38-1.43Z"/><path class="cls-2" d="M63.86,119.46c.06,.19,.15,.36,.26,.51v-4.84c-1.15,1.02-.74,2.76-.26,4.33Z"/><path class="cls-2" d="M74.08,115.47c-.08-.37-.1-.77-.08-1.17-.91,.44-.55,1.52-.93,2.28-.58,1.15-3.07-2.22-4.99-2.3-1.5-.07-2.54,.1-3.26,.42v5.88c1.07,.57,2.82,.49,4.76,.06,1.03-1.46,5.09-2.41,4.5-5.18Z"/><path class="cls-2" d="M100.36,92.42c-4.22-.77-3.07,1.15-3.65,2.3-.58,1.15-3.07-2.22-4.99-2.3-5.58-.25-4.99,2.69-4.22,5.18,.77,2.49,5.56,1.54,9.59,0,.16-.06,.31-.12,.47-.19,.92-.38,1.79-.82,2.53-1.29,2.33-1.47,3.34-3.15,.26-3.71Z"/><path class="cls-2" d="M50.31,113.74c-.97-.77-2.18,.21-3.51,1.41,1.06,.44,2.65,.63,4.18,.88,.05-.44,.1-.87,.12-1.28-.22-.41-.47-.77-.79-1.02Z"/><path class="cls-2" d="M48.96,120.27c.46-.22,.82-.21,1.1-.04,.16-.55,.31-1.11,.44-1.67-.2,.01-.39,.03-.61,.06-4.34,.7-3.34,2.83-.94,1.65Z"/><path class="cls-2" d="M41.62,125.81c.77,.63,1.88,1.02,2.96,1.34,.17,.05,.34,.08,.51,.09-.72-.32-1.71-.85-3.25-1.35-.08-.03-.14-.05-.22-.08Z"/><path class="cls-3" d="M42.88,90.48c0,2.66,1.87,1.87,2.37,2.6,.08,.11,.13,.26,.13,.47,0,1.54,.38,3.45,1.15,5.95,.39,1.25-.68,2.27-1.45,2.96-.76,.69-1.23,1.07,.3,1.07,2.71,0,1.54-3.14,3.73-3.87,.09-3.57,.48-7.91,.91-11.32-3.39-.81-7.14-.88-7.14,2.15Z"/><path class="cls-3" d="M56.6,127.2c-.24,0-.47,.02-.69,.05,.3,.12,.63,.24,1.01,.38-.07-.19-.18-.33-.32-.42Z"/><path class="cls-3" d="M60.46,127.71c-.51-.13-1.04-.23-1.56-.32,.19,.28,.42,.58,.7,.91h.03c2.03,.34,3.63,1.44,4.48,2.47v-4.23c-1.23,.77-2.38,1.48-3.66,1.17Z"/><path class="cls-3" d="M63.14,132.63c-1.43-.48-2.46,.3-3.35,1.44,.68,.08,1.37,.13,2.07,.19h2.27v-1.45c-.25,0-.57-.04-.98-.18Z"/><path class="cls-3" d="M101.87,103.72c-1.47-.42-2.69-.11-3.78,.42-1.83,.89-3.31,2.37-5.03,2.1,.1-.38,.08-.95-.12-1.75-.87-3.62-4.77-3.82-6.19-5.79,.06,1.75,.07,3.36-.02,4.64,.57-.12,1.23,.13,1.91,.93,.45,.54,.97,1.05,1.49,1.47-1.98-.17-3.71,.14-4.33,1.44-.18,.01-.36,.01-.55,0-.06-.32-.09-.64-.09-.94-2.22-.62-4.63-3.13-8.54-2.96,0,.01,.01,.02,.02,.03,1.35,2.4,.5,3.78,1.75,5.23,.4,.47,1.03,.94,2.02,1.46,2.91,1.52,4.43,.98,4.85-.54,3.83,1.46,7.55,3.7,6.57,5.95-.6,1.4-1.35,2.86-2.68,3.09-.65,1.79-3.66,2.85-1.11,2.85,3.07,0,1.15-4.03,4.8-4.03s3.84,2.49,7.68,0c3.84-2.49,2.88-4.61,0-5.56-2.88-.96-4.03-3.84-.96-4.41,1.44-.27,2.91-.83,3.66-1.48,.86-.73,.79-1.56-1.36-2.17Z"/><path class="cls-2" d="M84.15,130.8c.07-.23,.18-.5,.32-.79-.23,.13-.46,.26-.67,.4,.11,.11,.23,.24,.35,.39Z"/><path class="cls-2" d="M80.37,129.97c.23,.3,.47,.36,.72,.31,.43-.57,.89-1.04,1.43-1.18,.85-.21,1.95-1.08,3.03-1.79,.07-.33,.1-.66,.05-.95-.91-5.52-3.66-4.33-5.94-3.06-1.18,.65-1.23,2.16-.69,3.97,.18,.62,.43,1.26,.73,1.92,.24,.26,.46,.51,.66,.77Z"/><path class="cls-2" d="M84.69,131.77c.04,.14,.06,.27,.08,.4,.48-.13,.96-.27,1.44-.41-.47-.12-1.01,.04-1.52,0Z"/><path class="cls-12" d="M55.73,124.58c-2.69-.58-3.07-1.54-3.84,0-.43,.86,.58,2.11,0,2.69-.03,.03-.05,.06-.06,.09,1.87-.86,2.72-.63,4-.14,.31-.16,.57-.15,.77-.02,.14,.09,.25,.24,.32,.42,.7,.24,1.55,.49,2.68,.68-.28-.33-.51-.63-.7-.91-1.09-1.59-.94-2.33-3.17-2.81Z"/><path class="cls-3" d="M99.22,124.32c-1.76-.23-3.53,2.46-4.86,2.84,.59-.67,.33-1.39-1.59-1.94-.07-.02-.13-.02-.2-.04-.46-1.42-.81-2.95-2.32-2.42-2.29,.8-1.52,1.17-3.19,2.46-.48,.37-.62,.93-.53,1.51,.88-.46,1.66-.62,2.17,.04,.96,1.24-1.94,1.98-4.24,3.25-.13,.29-.24,.55-.32,.79-.12-.15-.24-.28-.35-.39-.53,.34-.99,.72-1.32,1.15-.35,.45-.53,.9-.61,1.32,.97-.22,1.94-.45,2.9-.71-.01-.13-.04-.27-.08-.4,.51,.03,1.05-.12,1.52,0,.85-.25,1.69-.52,2.52-.8-.29-.93,.17-1.82,1.73-2.11,.44-.08,.89-.2,1.31-.33,.06,.31-.08,.84-.18,1.4,3.14-1.22,6.17-2.67,9.06-4.33-.09-.58-.28-1.13-1.45-1.28Z"/><path class="cls-12" d="M47.48,126.46c.76-1.2,1.86-.51,2.79-1.27,.75-.62,1-4.23-.21-4.96-.28-.17-.65-.18-1.1,.04-2.4,1.18-3.4-.95,.94-1.65,.21-.03,.41-.05,.61-.06,.91-.06,1.64,.08,2.24,.29-.41-.75-.71-1.75-1.04-2.69-.24-.04-.48-.09-.72-.12-1.53-.25-3.12-.44-4.18-.88-1.47,1.33-3.11,2.93-4.78,2.75-2.18-.23-2.09-1.44-2.3-2.5-1.12,.02-2.09-.29-2.64-1.4-1.66-3.3-3.31,1.74-.56,5.54,.83,1.15,1.29,2.07,1.64,2.83,.78,1.69,1,2.59,3.47,3.43,.08,.03,.14,.05,.22,.08,1.54,.5,2.53,1.02,3.25,1.35,.33,.15,.6,.25,.85,.29,.57,.09,.97-.17,1.54-1.07Z"/><path class="cls-2" d="M63.14,132.63c.41,.14,.73,.19,.98,.18v-2.04c-.86-1.03-2.46-2.13-4.48-2.46h-.03c-1.13-.19-1.98-.44-2.68-.69-.37-.13-.7-.26-1.01-.38l-.08-.03c-1.28-.49-2.13-.72-4,.14-.15,.07-.29,.13-.45,.21-1.21,.62-2.16,.94-2.88,1.19-1.42,.5-1.89,.73-1.52,2.37,.02,.09,.02,.17,.02,.25,4.1,1.29,8.38,2.2,12.78,2.68,.9-1.14,1.92-1.92,3.35-1.44Z"/><path class="cls-2" d="M91.84,115.43c.97-2.25-2.75-4.49-6.57-5.95-.42,1.52-1.94,2.06-4.85,.54-.99-.52-1.61-.99-2.02-1.46-.36,.19-.56,.49-.52,.9,.24,.15,.46,.39,.64,.76,.48,.96,1.32,1.79,2.17,2.54,1.04,.35,1.47-.77,2.28-1.11,1.18-.5,.9,3.68,2.3,4.99,1.7,1.59,2.94,2.05,3.89,1.89,1.33-.23,2.08-1.69,2.68-3.09Z"/><path class="cls-3" d="M77.51,132.97c1.66,.6,2.55-1.34,3.58-2.69-.25,.04-.49-.01-.72-.31-.19-.25-.42-.51-.66-.77-.3-.66-.55-1.31-.73-1.92-.38,.06-.73,.15-1.04,.28-.62-.51-1.32-1.03-2.11-1.59-2.13-1.51,.88-5.77-1.55-3.89-2.43,1.88,1.55,3.89-1.34,6.12-2.84,2.19-4.51,.44-6.01,4.51-1.93-1.23-2.35-3.35,.24-3.84,3.07-.58,6.33-2.49,2.3-3.65-1.87-.54-3.34,.12-4.65,.9v8.15h7.82c1.32-.1,2.63-.24,3.92-.42-.41-.73-.19-1.27,.94-.86Z"/><path class="cls-3" d="M34.69,124.45c-.23-.82-.51-1.64-.84-2.4-.31,.27-.65,.55-1.06,.84-.52,.36-1.3,.48-2.11,.52,0,.09,.01,.18,.02,.27,2.93,1.9,6.01,3.58,9.23,5.01-1.81-1.75-4.65-2.14-5.24-4.24Z"/><path class="cls-2" d="M30.4,118.79c0,.09,0,.17,0,.23,.09,1.45,.17,2.89,.27,4.34v.05h.01c.81-.04,1.6-.16,2.11-.52,.41-.29,.75-.57,1.06-.84,3.09-2.73,1.06-4.47-.88-5.84-.71-.5-1.84-.56-2.71-.1h0c.05,.29,.16,1.92,.15,2.68Z"/><path class="cls-12" d="M83.8,130.41c.21-.14,.44-.27,.67-.4,2.3-1.27,5.2-2.01,4.24-3.25-.51-.66-1.3-.5-2.17-.04-.32,.17-.65,.37-.98,.6-1.07,.71-2.18,1.58-3.03,1.79-.54,.13-1,.6-1.43,1.18-1.03,1.36-1.93,3.29-3.58,2.69-1.13-.41-1.35,.13-.94,.86,1.79-.25,3.56-.57,5.31-.96,.08-.42,.26-.86,.61-1.32,.33-.43,.79-.81,1.32-1.15Z"/><path class="cls-3" d="M42.01,117.9c1.67,.18,3.31-1.42,4.78-2.75,1.34-1.2,2.54-2.19,3.51-1.41,.32,.25,.57,.61,.79,1.02,.23,.42,.43,.9,.6,1.4,.34,.94,.63,1.94,1.04,2.69,.53,.97,1.26,1.54,2.56,1.05,3.36-1.26,2.2-1.78,4.62-3.75s-1.1-7.21-5.36-4.81c-2.58,1.45-1.62-.65-1.44-2.54,.07-.76,.02-1.49-.45-1.95-.29-.28-.73-.46-1.4-.46-4.43-.06-4.54,2.95-7.45,3.85-2.91,.9-4.84,3.92-4.84,3.92,.48,.3,.64,.76,.73,1.24,.21,1.05,.12,2.27,2.3,2.5Z"/><path class="cls-12" d="M25.88,97.05c2.57,1.87,3.37,1.23,5.6-.38,.71-.51,1.27-.82,1.71-1.05,.02-.06,.05-.12,.05-.18,.09-.56,.35-1.24,.64-1.92-.46-.68-1.47-1.35-1.78-1.85-.47,.12-.99,.31-1.46,.42-.55,.59-1.02,1.96-1.16,2.78-.27,1.55-2.51,.19-2.18-1.87-.09,.01-.23,.05-.39,.11-1.18,.42-3.7,2.01-1.04,3.95Z"/><path class="cls-12" d="M33.64,99.93c-.52,.41-1.11,.9-1.71,1.4-.1,.62-.12,1.23,0,1.8,.37,1.75-1.57,2.94-2.98,3.82,0,.02,.15,.54,.16,.56,.06,.2,.1,.37,.14,.53,.13,.55,.17,.91,.37,1.68,0,.04,.02,.06,.03,.1,1.95-.41,4.86-1.23,6.8-.19,3.33,1.79,2.84-2.04,2.04-4.08-.66-1.69,0,0,2.22-1.41,2.22-1.41-2.83-3.26-4.33-6.26-.06-.13-.14-.22-.21-.32-.1,.74-.88,1.06-2.54,2.35Z"/><path class="cls-2" d="M33.88,93.52c-.29,.68-.55,1.36-.64,1.92,0,.06-.04,.12-.05,.18-.56,1.77-5.17,4.64-6.3,6.05,.37,.68,.44,.92,.75,1.63,.11,.09,.22,.51,.31,.78v.02c.04,.08,.07,.15,.09,.19,1.08-.58,2.53-1.81,3.88-2.95,.6-.5,1.18-1,1.71-1.4,1.66-1.29,2.43-1.61,2.54-2.35,.06-.43-.1-.99-.45-1.97-.95-2.65,1.64-1.86,2.63-2.93h.01c.48-.55-.14-1.56-.7-2.38-.1-.15-.2-.29-.29-.43h0c-.77,.3-1.5,.59-2.28,.86h-.04c-.15,.63-.72,1.71-1.18,2.79Z"/><path class="cls-12" d="M78.52,110.22c-.18-.37-.4-.62-.64-.76-1.48-.91-3.73,2.11-3.88,4.83-.02,.4,0,.8,.08,1.17,.59,2.77-3.46,3.71-4.5,5.18-.21,.3-.31,.61-.2,.97,.61,2.12,5.88-1.43,9.21,.36,3.33,1.79,2.84-2.04,2.04-4.08-.66-1.69,0,0,2.22-1.41,1.52-.96-.35-2.13-2.17-3.72-.85-.74-1.69-1.58-2.17-2.54Z"/><path class="cls-7" d="M89.19,40.29s.05,.04,.08,.06c-.02-.78-.03-1.82-.08-3.03-.01-.42-.03-.85-.06-1.3-.02,.01-.05,.03-.08,.04,.09,1.7,.1,3.19,.13,4.23Z"/><path class="cls-7" d="M74,19.57h-.05s.02,0,.03,0h.02Z"/><path class="cls-7" d="M73.77,19.56h0c-1.68-.18-3.17-.26-4.2-.29h0c1.04,.04,2.53,.12,4.2,.29Z"/><path class="cls-12" d="M84.45,22.4c1.85,1.2,2.96,3.58,3.63,6.27,.03,0,.06-.01,.09-.02,0,.01,.01,.05,.02,.1-.15-.76-.36-1.32-.59-1.95-.04-.09-.08-.19-.12-.29-.14-.33-.28-.68-.45-1.03-.05-.12-.11-.24-.17-.36-.04-.08-.09-.17-.13-.25-.16-.3-.36-.6-.58-.91-.01-.02-.03-.04-.05-.06-.19-.26-.41-.51-.66-.76-.06-.06-.14-.12-.2-.18-.11-.1-.22-.21-.35-.31-.44-.36-1.04-.69-1.73-.99-.12-.05-.23-.1-.35-.15l-.05-.02c-.43-.17-.89-.33-1.36-.49-.21-.07-.43-.13-.66-.2-.46-.13-.92-.26-1.4-.37-1.86-.45-3.81-.75-5.34-.86h-.02s-.02,0-.03,0c-.06,0-.12-.02-.18-.02h0c3.62,.38,8.09,1.17,10.68,2.85Z"/><path class="cls-2" d="M69.58,19.27h0c-2.37-.18-5.26,.09-6.3,.2,2.74-.24,4.79-.24,4.79-.24,0,0,.57,0,1.51,.03Z"/><path class="cls-2" d="M88.08,28.67c.61,2.42,.86,5.09,.98,7.4,.03-.01,.06-.03,.08-.04h0c0-.06,0-.11-.01-.17-.05-.76-.1-1.45-.16-2.22,0-.07-.01-.14-.02-.21-.05-.66-.13-1.27-.23-1.88-.12-.75-.27-1.49-.42-2.29l-.02-.09s-.01-.05-.02-.09v-.02c-.02-.1-.05-.23-.07-.33,0-.05-.02-.08-.02-.1-.03,0-.06,.01-.09,.02Z"/><path class="cls-12" d="M58.51,20.09c1.26-.23,2.52-.4,3.71-.52-.71,0-2.17,.22-3.71,.52Z"/><path class="cls-8" d="M47.26,34.23h0s0-.09,.01-.13c0-.05,0-.09,.01-.14,.07-.74,.13-1.73,.31-2.62h0c.56-3.7,1.72-7.34,4.16-8.93,.65-.42,1.41-.78,2.25-1.1h0s.05-.02,.07-.03c.53-.22,1.31-.46,2.2-.68,.04-.01,.08-.02,.13-.03,.67-.17,1.39-.33,2.1-.47-2.58,.47-5.12,1.19-6.84,2.31-3.29,2.14-4.25,8.01-4.56,12.74,.04-.18,.08-.35,.12-.53,0-.13,.02-.25,.03-.38Z"/><path class="cls-8" d="M62.3,19.57c.19-.02,.38-.04,.56-.06h0s.16-.02,.4-.04c-.34,.03-.7,.06-1.06,.1,.03,0,.07,0,.09,0h0Z"/><path class="cls-10" d="M47.01,40.35c.03-1.32,.05-3.41,.22-5.74-.04,.18-.08,.35-.12,.53-.14,2.15-.15,4.05-.18,5.27,.03-.02,.05-.04,.08-.06Z"/><path class="cls-8" d="M47.01,40.35c.03-1.32,.05-3.41,.22-5.74-.04,.18-.08,.35-.12,.53-.14,2.15-.15,4.05-.18,5.27,.03-.02,.05-.04,.08-.06Z"/><path class="cls-7" d="M88.75,36.2c-1.7,.43-3.72-1.86-4.75,.49,2.48,1.43,4.19,2.86,5.19,3.61-.03-1.04-.04-2.53-.13-4.23-.1,.05-.21,.11-.31,.13Z"/><path class="cls-8" d="M88.75,36.2c-1.7,.43-3.72-1.86-4.75,.49,2.48,1.43,4.19,2.86,5.19,3.61-.03-1.04-.04-2.53-.13-4.23-.1,.05-.21,.11-.31,.13Z"/><path class="cls-7" d="M48.7,30.09c-.42-1.9-.09-1.87,1.79-2.64-.55-.02-.95-.19-1.09-.67-.56-1.95,4.6-2.67,4.6-5.47-.84,.32-1.61,.68-2.25,1.1-2.44,1.59-3.6,5.23-4.16,8.93,.32-.42,1.27-.49,1.11-1.24Z"/><path class="cls-8" d="M48.7,30.09c-.42-1.9-.09-1.87,1.79-2.64-.55-.02-.95-.19-1.09-.67-.56-1.95,4.6-2.67,4.6-5.47-.84,.32-1.61,.68-2.25,1.1-2.44,1.59-3.6,5.23-4.16,8.93,.32-.42,1.27-.49,1.11-1.24Z"/><path class="cls-7" d="M64.7,29.67c.92-.64,1.85-1.24,2.59-1.27-.5-.58-.99-1.24-1.43-1.93-1.47-2.28-2.85-5.04-2.99-6.95-.19,.02-.37,.04-.56,.06,.88,.82,1.16,1.62,.21,2.22-2.16,1.37-2.81-.27-2.16,1.37,.53,1.34,.91,3.47,.11,4.18,1.91,.33,3.41,1.36,4.24,2.33Z"/><path class="cls-8" d="M64.7,29.67c.92-.64,1.85-1.24,2.59-1.27-.5-.58-.99-1.24-1.43-1.93-1.47-2.28-2.85-5.04-2.99-6.95-.19,.02-.37,.04-.56,.06,.88,.82,1.16,1.62,.21,2.22-2.16,1.37-2.81-.27-2.16,1.37,.53,1.34,.91,3.47,.11,4.18,1.91,.33,3.41,1.36,4.24,2.33Z"/><path class="cls-7" d="M86.59,31.32c-.28-.29-.59-.51-.92-.69-.77-.1-1.9-.68-3.99-1.07-.62-.12-1.1-.25-1.5-.41,.08,.22,.22,.44,.47,.65,1.77,1.52,.55,1.78-1.06,4.8,.61,.23,1.19,.47,1.75,.72,1.96-1.83,6.98-2.19,5.26-4Z"/><path class="cls-8" d="M86.59,31.32c-.28-.29-.59-.51-.92-.69-.77-.1-1.9-.68-3.99-1.07-.62-.12-1.1-.25-1.5-.41,.08,.22,.22,.44,.47,.65,1.77,1.52,.55,1.78-1.06,4.8,.61,.23,1.19,.47,1.75,.72,1.96-1.83,6.98-2.19,5.26-4Z"/><path class="cls-7" d="M51.28,35.36c-.66,1.92-3.1,.35-4.02-1.13-.01,.13-.02,.25-.03,.38-.18,2.33-.19,4.42-.22,5.74,.06-.04,.11-.08,.17-.13-.37-.67,.21-.68,1.15-.89,.92-.7,2.12-1.57,3.61-2.46,2.21-3.23,.16-3.91-.66-1.52Z"/><path class="cls-8" d="M51.28,35.36c-.66,1.92-3.1,.35-4.02-1.13-.01,.13-.02,.25-.03,.38-.18,2.33-.19,4.42-.22,5.74,.06-.04,.11-.08,.17-.13-.37-.67,.21-.68,1.15-.89,.92-.7,2.12-1.57,3.61-2.46,2.21-3.23,.16-3.91-.66-1.52Z"/><path class="cls-7" d="M74.04,21.07c-.16-.54-.25-1.06-.27-1.51-1.67-.17-3.16-.25-4.2-.29,.07,.28,.08,.71,.13,1.04,.3,1.84-2.4,4.9-1.19,5.21,.77,.2,1.7-.32,2.3,.35,.74-2.42,1.49-4.97,3.22-4.81Z"/><path class="cls-8" d="M74.04,21.07c-.16-.54-.25-1.06-.27-1.51-1.67-.17-3.16-.25-4.2-.29,.07,.28,.08,.71,.13,1.04,.3,1.84-2.4,4.9-1.19,5.21,.77,.2,1.7-.32,2.3,.35,.74-2.42,1.49-4.97,3.22-4.81Z"/><path class="cls-7" d="M74.73,22.67c-.58,.71-1.31,1.81-1.29,3.7,.06,4.28,2.25,3.61,1.46,1.14-.44-1.37,.94-1.71,2.35-1.56-.37-.54-.83-1.16-1.49-1.86-.42-.45-.75-.93-1.03-1.41Z"/><path class="cls-8" d="M74.73,22.67c-.58,.71-1.31,1.81-1.29,3.7,.06,4.28,2.25,3.61,1.46,1.14-.44-1.37,.94-1.71,2.35-1.56-.37-.54-.83-1.16-1.49-1.86-.42-.45-.75-.93-1.03-1.41Z"/><path class="cls-7" d="M69.03,30.06c-.22-.16-.45-.35-.68-.56-.25,.65-1.57,1.19-2.99,1.86-.09,.22-.32,.35-.7,.34-.77,.39-1.51,.82-2.06,1.34,1.71-.28,3.55-.46,5.55-.46,.25,0,.49,.02,.73,.02-.05-.93-.06-1.81,.15-2.54Z"/><path class="cls-8" d="M69.03,30.06c-.22-.16-.45-.35-.68-.56-.25,.65-1.57,1.19-2.99,1.86-.09,.22-.32,.35-.7,.34-.77,.39-1.51,.82-2.06,1.34,1.71-.28,3.55-.46,5.55-.46,.25,0,.49,.02,.73,.02-.05-.93-.06-1.81,.15-2.54Z"/><path class="cls-12" d="M80.65,29.8c-.25-.21-.39-.43-.47-.65,.4,.16,.88,.29,1.5,.41,2.09,.4,3.23,.97,3.99,1.07-1.81-.99-3.76-.46,.37-1.5,.81-.2,1.47-.35,2.04-.46-.68-2.69-1.79-5.07-3.63-6.27-2.59-1.68-7.06-2.47-10.68-2.84,.02,.46,.11,.97,.27,1.51-1.73-.17-2.48,2.39-3.22,4.81,.34,.38,.58,1.15,.62,2.66,.07,2.39-1.03,2.52-2.41,1.53-.21,.72-.2,1.61-.15,2.54,4.25,.09,7.8,.9,10.71,2,1.61-3.02,2.83-3.28,1.06-4.8Zm-5.75-2.29c.8,2.48-1.39,3.14-1.46-1.14-.03-1.88,.71-2.99,1.29-3.7,.28,.49,.61,.96,1.03,1.41,.66,.7,1.12,1.32,1.49,1.86-1.42-.15-2.8,.19-2.35,1.56Z"/><path class="cls-8" d="M80.65,29.8c-.25-.21-.39-.43-.47-.65,.4,.16,.88,.29,1.5,.41,2.09,.4,3.23,.97,3.99,1.07-1.81-.99-3.76-.46,.37-1.5,.81-.2,1.47-.35,2.04-.46-.68-2.69-1.79-5.07-3.63-6.27-2.59-1.68-7.06-2.47-10.68-2.84,.02,.46,.11,.97,.27,1.51-1.73-.17-2.48,2.39-3.22,4.81,.34,.38,.58,1.15,.62,2.66,.07,2.39-1.03,2.52-2.41,1.53-.21,.72-.2,1.61-.15,2.54,4.25,.09,7.8,.9,10.71,2,1.61-3.02,2.83-3.28,1.06-4.8Zm-5.75-2.29c.8,2.48-1.39,3.14-1.46-1.14-.03-1.88,.71-2.99,1.29-3.7,.28,.49,.61,.96,1.03,1.41,.66,.7,1.12,1.32,1.49,1.86-1.42-.15-2.8,.19-2.35,1.56Z"/><path class="cls-2" d="M62.87,19.52c.13,1.91,1.52,4.67,2.99,6.95,.44,.69,.93,1.35,1.43,1.93,.36-.02,.68,.1,.93,.42,.19,.24,.21,.46,.13,.68,.23,.21,.46,.4,.68,.56,1.38,.99,2.48,.87,2.41-1.53-.04-1.51-.28-2.27-.62-2.66-.6-.67-1.53-.15-2.3-.35-1.21-.32,1.5-3.37,1.19-5.21-.05-.33-.06-.76-.13-1.04-.94-.03-1.51-.03-1.51-.03,0,0-2.05,0-4.79,.24-.25,.03-.39,.04-.4,.04h0Z"/><path class="cls-8" d="M62.87,19.52c.13,1.91,1.52,4.67,2.99,6.95,.44,.69,.93,1.35,1.43,1.93,.36-.02,.68,.1,.93,.42,.19,.24,.21,.46,.13,.68,.23,.21,.46,.4,.68,.56,1.38,.99,2.48,.87,2.41-1.53-.04-1.51-.28-2.27-.62-2.66-.6-.67-1.53-.15-2.3-.35-1.21-.32,1.5-3.37,1.19-5.21-.05-.33-.06-.76-.13-1.04-.94-.03-1.51-.03-1.51-.03,0,0-2.05,0-4.79,.24-.25,.03-.39,.04-.4,.04h0Z"/><path class="cls-2" d="M88.75,36.2c.11-.03,.22-.08,.31-.13-.12-2.3-.37-4.97-.98-7.4-.57,.11-1.24,.26-2.04,.46-4.13,1.04-2.17,.5-.37,1.5,.32,.18,.64,.4,.92,.69,1.73,1.81-3.3,2.18-5.26,4,.97,.44,1.86,.9,2.67,1.36,1.03-2.34,3.05-.06,4.75-.49Z"/><path class="cls-8" d="M88.75,36.2c.11-.03,.22-.08,.31-.13-.12-2.3-.37-4.97-.98-7.4-.57,.11-1.24,.26-2.04,.46-4.13,1.04-2.17,.5-.37,1.5,.32,.18,.64,.4,.92,.69,1.73,1.81-3.3,2.18-5.26,4,.97,.44,1.86,.9,2.67,1.36,1.03-2.34,3.05-.06,4.75-.49Z"/><path class="cls-12" d="M56.28,20.59c-.89,.22-1.67,.46-2.2,.68-.02,0-.05,.02-.07,.03h0c0,2.8-5.16,3.53-4.6,5.48,.14,.48,.53,.66,1.09,.67,.5-.21,1.11-.47,1.85-.85,3.52-1.79,3.53-.02,8.03,.71,.03,0,.06,.01,.08,.02,.8-.71,.42-2.84-.11-4.18-.64-1.64,0,0,2.16-1.37,.95-.6,.67-1.4-.21-2.22h0s-.06,0-.09,0c-1.18,.12-2.45,.29-3.71,.52-.71,.14-1.43,.3-2.1,.47-.04,.01-.08,.02-.13,.03Z"/><path class="cls-8" d="M56.28,20.59c-.89,.22-1.67,.46-2.2,.68-.02,0-.05,.02-.07,.03h0c0,2.8-5.16,3.53-4.6,5.48,.14,.48,.53,.66,1.09,.67,.5-.21,1.11-.47,1.85-.85,3.52-1.79,3.53-.02,8.03,.71,.03,0,.06,.01,.08,.02,.8-.71,.42-2.84-.11-4.18-.64-1.64,0,0,2.16-1.37,.95-.6,.67-1.4-.21-2.22h0s-.06,0-.09,0c-1.18,.12-2.45,.29-3.71,.52-.71,.14-1.43,.3-2.1,.47-.04,.01-.08,.02-.13,.03Z"/><path class="cls-2" d="M65.36,31.35c-.23,.11-.47,.22-.7,.34,.38,0,.61-.12,.7-.34Z"/><path class="cls-8" d="M65.36,31.35c-.23,.11-.47,.22-.7,.34,.38,0,.61-.12,.7-.34Z"/><path class="cls-2" d="M62.2,31.11c.71-.17,1.6-.82,2.5-1.44-.83-.98-2.34-2-4.24-2.33-.03,0-.05-.01-.08-.02-4.5-.74-4.51-2.5-8.03-.71-.74,.38-1.35,.64-1.85,.85-1.88,.78-2.21,.74-1.79,2.64,.16,.74-.78,.82-1.11,1.24h0c-.18,.89-.24,1.89-.31,2.62,0,.05,0,.09-.01,.14,0,.04,0,.09-.01,.13h0c.92,1.48,3.36,3.05,4.02,1.13,.82-2.39,2.87-1.71,.66,1.52,2.05-1.21,4.67-2.45,7.91-3.28,.75-1.02,1.42-2.26,2.35-2.49Z"/><path class="cls-8" d="M62.2,31.11c.71-.17,1.6-.82,2.5-1.44-.83-.98-2.34-2-4.24-2.33-.03,0-.05-.01-.08-.02-4.5-.74-4.51-2.5-8.03-.71-.74,.38-1.35,.64-1.85,.85-1.88,.78-2.21,.74-1.79,2.64,.16,.74-.78,.82-1.11,1.24h0c-.18,.89-.24,1.89-.31,2.62,0,.05,0,.09-.01,.14,0,.04,0,.09-.01,.13h0c.92,1.48,3.36,3.05,4.02,1.13,.82-2.39,2.87-1.71,.66,1.52,2.05-1.21,4.67-2.45,7.91-3.28,.75-1.02,1.42-2.26,2.35-2.49Z"/><path class="cls-2" d="M47.18,40.22c.32-.24,.7-.54,1.15-.89-.95,.21-1.52,.22-1.15,.89Z"/><path class="cls-8" d="M47.18,40.22c.32-.24,.7-.54,1.15-.89-.95,.21-1.52,.22-1.15,.89Z"/><path class="cls-12" d="M65.36,31.35c1.42-.66,2.74-1.21,2.99-1.86,.08-.21,.06-.43-.13-.68-.25-.32-.57-.44-.93-.42-.74,.03-1.67,.63-2.59,1.27-.9,.62-1.79,1.27-2.5,1.44-.93,.23-1.6,1.47-2.35,2.49,.87-.22,1.79-.41,2.74-.56,.56-.52,1.3-.95,2.06-1.34,.23-.12,.47-.23,.7-.34Z"/><path class="cls-8" d="M65.36,31.35c1.42-.66,2.74-1.21,2.99-1.86,.08-.21,.06-.43-.13-.68-.25-.32-.57-.44-.93-.42-.74,.03-1.67,.63-2.59,1.27-.9,.62-1.79,1.27-2.5,1.44-.93,.23-1.6,1.47-2.35,2.49,.87-.22,1.79-.41,2.74-.56,.56-.52,1.3-.95,2.06-1.34,.23-.12,.47-.23,.7-.34Z"/><path class="cls-9" d="M51.03,49.8c.75-.23,1.62-.74,2.64-1.62,3.6-3.12,6.98-4.65,9.58-5.4,2.96-.86,4.89-.71,4.89-.71,0,0,3.24-.27,7.78,1.77,2.03,.91,4.31,2.28,6.69,4.34,.81,.7,1.52,1.16,2.16,1.44,2.97,1.31,4.14-1.55,4.59-4.4,.37-2.32,.26-4.62,.26-4.62l-.02-.02c-.09-.06-.21-.15-.32-.23-.03-.02-.05-.04-.08-.06-1-.75-2.71-2.18-5.19-3.61-.81-.46-1.7-.93-2.67-1.36-.55-.25-1.14-.49-1.75-.72-2.91-1.1-6.46-1.92-10.71-2-.25,0-.48-.02-.73-.02-2,0-3.84,.18-5.55,.46-.95,.16-1.88,.34-2.74,.56-3.24,.83-5.85,2.07-7.91,3.28-1.5,.88-2.7,1.76-3.61,2.46-.45,.35-.83,.64-1.15,.89-.06,.05-.12,.09-.17,.13-.03,.02-.05,.04-.08,.06-.09,.07-.19,.14-.26,.19h0s-.15,3.18,.5,5.83c.54,2.21,1.65,4.05,3.87,3.36Z"/><path class="cls-12" d="M74.68,103.59s-.08,.02-.12,.03c0,0-4.94,.88-8.07,1.65-.08,.12-.15,.23-.24,.36-.46,.63-.95,1.08-1.42,1.41v2.98c2.42-.54,5.61-2.89,7.49-3.39,1.08-.29,1.74-1.62,2.36-3.03Z"/><path class="cls-7" d="M64.82,120.58v-14.84c.43-.14,1.02-.3,1.67-.46,3.13-.78,8.07-1.65,8.07-1.65,.04-.01,.08-.02,.12-.03,.69-.18,1.34-.27,1.95-.29,3.91-.17,6.31,2.33,8.54,2.96,.16,.04,.32,.08,.47,.11,.63,.09,.96-1.11,1.09-3.02,.09-1.29,.09-2.89,.02-4.64-.19-5.18-.94-11.59-1.53-14.53-.07-.33-.13-.62-.19-.86-1.05-4.07-3.07-4.22-5.03-4.97h0c.08,.32,.18,.65,.28,.97l.42,1.44s.97,4.84-2.09,9.09c-1.68,2.33-6.96,8.05-10.68,12.03-3.72-3.98-9-9.7-10.68-12.03-3.06-4.26-2.09-9.09-2.09-9.09l.71-2.41-.06,.02c-1.94,.74-3.93,.92-4.97,4.95-.06,.24-.13,.53-.19,.86-.21,1.03-.43,2.48-.65,4.16-.44,3.42-.83,7.75-.91,11.32-.09,3.88,.18,6.85,1.15,6.71,1.23-.18,2.5-1.06,4.02-1.83,1.7-.86,3.73-1.58,6.41-1.05,.22,.04,.43,.08,.66,.14,0,0,1.98,.35,4.23,.81-.91,.98-1.49,1.59-1.51,1.64,.02-.02,.07-.04,.11-.06l-.05,.05h0v28.2h.7v-13.68Z"/></g></g></svg>